<svg xmlns="http://www.w3.org/2000/svg" width="1498" height="700" viewBox="0 0 1498 700">
<g>
<path d="M 1211.36 501.50 C1202.22,503.09 1201.19,503.12 1191.00,502.01 C1161.49,498.81 1133.45,473.72 1124.49,442.50 C1122.73,436.35 1122.08,435.32 1119.15,434.00 L 1115.83 432.50 L 1116.34 414.50 C1116.89,395.09 1117.88,389.74 1123.19,377.60 C1126.80,369.34 1133.22,358.55 1136.80,354.74 C1140.86,350.42 1140.83,350.13 1134.82,336.30 C1133.82,334.00 1133.00,331.82 1133.00,331.46 C1133.00,330.79 1130.48,324.75 1129.06,322.00 C1127.46,318.92 1125.58,320.52 1124.35,326.00 C1123.67,329.02 1122.42,334.42 1121.56,338.00 C1120.70,341.58 1119.60,346.30 1119.11,348.50 C1118.62,350.70 1116.79,358.80 1115.04,366.50 C1110.61,385.95 1109.36,391.67 1106.39,406.00 C1101.12,431.50 1100.68,432.75 1094.80,438.72 C1088.04,445.60 1084.67,447.66 1076.29,450.06 C1066.28,452.92 1042.34,452.48 991.64,448.48 C981.27,447.67 968.43,447.00 963.09,447.00 L 953.39 447.00 L 946.21 455.88 C938.03,465.98 927.16,474.00 918.02,476.67 C909.63,479.13 890.90,478.06 884.31,474.75 C872.27,468.70 866.05,463.39 859.26,453.37 C854.09,445.73 852.80,443.11 849.49,433.50 C847.10,426.55 846.67,423.51 846.25,410.39 C845.87,398.61 846.14,393.42 847.46,386.89 C847.62,386.12 847.76,385.42 847.90,384.79 C848.59,381.52 848.93,379.89 848.40,378.64 C847.77,377.16 845.92,376.19 842.00,373.64 C838.66,371.48 838.51,371.11 838.61,365.81 C838.69,361.32 839.61,358.46 843.36,350.96 C845.91,345.86 848.00,341.32 848.00,340.88 C848.00,340.45 846.42,339.79 844.49,339.43 C836.83,337.99 832.98,328.17 838.31,323.64 C841.10,321.26 848.90,321.87 854.57,324.91 C859.58,327.60 859.74,327.58 864.61,323.74 C866.87,321.96 873.74,317.82 879.86,314.54 L 891.00 308.58 L 891.00 300.41 C891.00,291.38 891.56,290.38 897.10,289.42 C898.97,289.10 901.62,288.42 903.00,287.92 C907.78,286.19 938.71,281.96 940.88,282.75 C941.77,283.07 945.74,286.38 949.69,290.11 C955.70,295.76 957.98,297.22 963.55,298.94 C967.21,300.07 970.64,301.00 971.16,301.00 C972.95,301.00 980.67,304.90 981.97,306.46 C983.82,308.69 985.67,306.84 987.39,301.06 C994.43,277.36 1019.16,254.30 1049.00,243.64 C1058.95,240.08 1074.47,239.07 1087.08,241.15 C1093.73,242.25 1094.16,242.20 1096.43,240.06 C1101.01,235.76 1100.58,234.45 1091.30,224.61 C1079.53,212.11 1077.03,209.42 1074.31,209.18 C1073.57,209.11 1072.80,209.23 1071.83,209.38 L 1071.64 209.41 C1069.36,209.77 1060.07,210.46 1051.00,210.95 C1041.93,211.44 1031.43,212.38 1027.67,213.04 C1019.51,214.47 1017.93,213.68 1019.67,209.05 C1020.97,205.62 1020.09,205.00 1013.92,205.00 C1008.22,205.00 1005.81,202.25 1006.20,196.20 L 1006.50 191.50 L 1029.14 191.50 C1049.29,191.50 1051.99,191.31 1053.72,189.75 C1054.78,188.79 1055.91,188.00 1056.23,188.00 C1056.54,188.00 1059.14,189.57 1062.00,191.50 C1066.01,194.20 1068.22,195.00 1071.65,195.00 C1077.42,195.00 1080.56,196.72 1085.65,202.66 C1095.78,214.46 1101.78,220.00 1104.45,220.00 C1107.73,220.00 1111.87,217.92 1114.50,214.96 C1118.79,210.13 1126.53,206.17 1134.68,204.62 C1142.01,203.23 1143.39,203.25 1151.22,204.83 C1165.31,207.69 1172.95,214.13 1180.34,229.43 C1184.37,237.77 1185.29,239.00 1187.48,239.00 C1190.15,239.00 1194.00,242.13 1194.00,244.30 C1194.00,246.53 1191.74,248.00 1188.32,248.00 C1184.40,248.00 1182.49,250.44 1180.49,258.04 C1179.15,263.13 1175.65,269.40 1171.78,273.66 C1170.38,275.20 1170.02,276.51 1170.53,278.16 C1171.20,280.36 1179.14,299.67 1182.99,308.50 C1183.95,310.70 1185.04,313.48 1185.41,314.68 C1186.06,316.77 1186.74,316.88 1201.30,317.32 C1209.66,317.58 1218.07,318.08 1220.00,318.43 C1229.48,320.19 1239.11,324.39 1250.34,331.65 C1256.04,335.34 1256.98,336.32 1255.97,337.54 C1255.14,338.54 1252.75,339.00 1248.38,339.00 C1244.87,339.00 1242.00,339.35 1242.00,339.77 C1242.00,340.19 1246.42,345.03 1251.83,350.52 C1265.67,364.56 1272.31,375.64 1276.87,392.26 C1281.42,408.85 1280.34,433.42 1274.45,447.50 C1273.76,449.15 1272.51,452.15 1271.68,454.16 C1269.05,460.55 1263.31,468.67 1255.88,476.49 C1241.25,491.89 1229.91,498.26 1211.36,501.50 ZM 1052.00 440.38 C1053.38,440.56 1054.88,440.77 1055.35,440.85 C1057.66,441.26 1072.37,432.30 1077.31,427.47 C1083.66,421.27 1089.00,413.95 1089.00,411.44 C1089.00,410.50 1089.44,408.10 1089.98,406.12 C1091.76,399.54 1094.08,389.67 1097.04,376.00 C1098.65,368.58 1101.15,357.33 1102.59,351.00 C1104.03,344.67 1105.77,336.84 1106.46,333.60 L 1107.72 327.70 L 1104.25 323.85 C1098.28,317.25 1096.16,318.86 1093.49,332.00 C1092.65,336.12 1090.81,344.45 1089.40,350.50 C1087.99,356.55 1085.97,365.33 1084.90,370.00 C1079.66,392.91 1078.75,396.67 1077.91,398.80 C1077.41,400.06 1077.00,401.75 1077.00,402.56 C1077.00,403.86 1075.09,408.64 1071.65,415.94 C1071.02,417.29 1068.25,420.69 1065.50,423.51 L 1060.50 428.64 L 1040.00 428.33 C1018.71,428.00 984.44,426.62 956.00,424.93 C931.01,423.45 876.37,421.93 871.66,422.58 C866.61,423.28 863.00,424.92 863.00,426.52 C863.00,427.87 877.12,429.64 894.50,430.48 C900.55,430.77 910.90,431.46 917.50,432.00 C924.10,432.54 939.17,433.45 951.00,434.01 C962.83,434.57 977.67,435.47 984.00,436.00 C990.33,436.54 1007.65,437.67 1022.50,438.52 C1037.35,439.36 1050.62,440.20 1052.00,440.38 ZM 995.42 300.65 C995.96,302.06 997.42,302.19 1006.77,301.62 C1012.67,301.26 1021.33,300.52 1026.00,299.98 C1030.68,299.45 1038.27,298.60 1042.89,298.09 C1050.21,297.30 1051.98,296.69 1056.85,293.34 C1071.09,283.54 1075.50,263.47 1065.84,252.47 C1063.18,249.44 1062.21,249.00 1058.15,249.01 C1044.82,249.06 1018.62,264.89 1005.02,281.12 C999.20,288.07 994.36,297.90 995.42,300.65 ZM 1181.33 469.60 C1186.22,471.42 1189.62,471.91 1197.68,471.95 C1206.56,471.99 1208.68,471.66 1214.18,469.32 C1221.68,466.13 1225.17,463.92 1230.35,459.09 C1237.26,452.64 1246.00,436.68 1246.00,430.52 C1246.00,428.56 1245.33,428.20 1240.75,427.65 C1237.86,427.30 1233.38,427.01 1230.80,427.01 C1226.23,427.00 1226.04,427.12 1224.18,431.25 C1223.13,433.59 1219.09,438.65 1215.20,442.51 L 1208.14 449.52 L 1209.15 454.26 C1209.74,457.02 1211.01,459.59 1212.19,460.42 C1214.16,461.80 1214.12,461.88 1210.91,463.55 C1208.66,464.71 1205.03,465.29 1199.55,465.35 C1186.32,465.52 1178.59,461.81 1167.96,450.21 C1157.74,439.06 1153.60,423.10 1156.68,406.77 C1158.53,396.98 1157.61,390.93 1153.97,388.98 C1152.22,388.05 1151.74,388.53 1149.55,393.48 C1140.13,414.78 1145.84,442.64 1162.89,458.63 C1167.18,462.65 1174.76,467.16 1181.33,469.60 ZM 963.38 372.03 C966.20,373.03 969.00,373.89 969.60,373.93 C971.59,374.06 980.00,361.65 980.00,358.59 C980.00,357.84 980.66,355.04 981.47,352.36 C982.28,349.69 983.91,343.45 985.10,338.50 C986.28,333.55 987.50,328.87 987.80,328.09 C988.25,326.91 987.10,326.80 980.92,327.41 C976.84,327.81 971.03,328.51 968.00,328.98 C964.97,329.44 958.11,330.39 952.75,331.09 C947.39,331.79 943.00,332.83 943.00,333.40 C943.00,333.97 944.99,340.08 947.42,346.97 C949.85,353.86 952.34,361.40 952.96,363.73 C954.15,368.28 955.22,369.13 963.38,372.03 ZM 1004.50 315.28 C1008.21,316.19 1027.10,316.01 1044.14,314.90 C1059.21,313.93 1061.59,313.53 1065.58,311.30 C1071.12,308.20 1081.00,299.30 1081.00,297.40 C1081.00,296.63 1081.39,296.00 1081.86,296.00 C1082.33,296.00 1084.16,292.34 1085.93,287.86 C1088.76,280.70 1089.15,278.56 1089.16,270.11 C1089.17,258.73 1086.81,251.64 1082.46,249.99 C1079.72,248.94 1073.00,248.63 1073.00,249.54 C1073.00,249.84 1073.97,251.97 1075.17,254.29 C1076.93,257.72 1077.33,260.19 1077.30,267.61 C1077.24,287.87 1066.37,301.68 1048.00,304.84 C1042.19,305.84 1025.82,307.69 1006.76,309.51 C1003.05,309.87 999.80,310.51 999.53,310.94 C998.89,311.98 1001.97,314.66 1004.50,315.28 ZM 1019.50 292.50 C1015.10,292.84 1010.12,293.35 1008.44,293.63 C1006.46,293.97 1004.95,293.65 1004.18,292.72 C1003.21,291.54 1004.50,289.84 1011.30,283.31 C1020.53,274.45 1031.27,266.98 1041.05,262.63 C1044.60,261.05 1048.28,259.36 1049.24,258.88 C1050.19,258.40 1052.56,258.00 1054.50,258.00 C1057.41,258.00 1058.38,258.57 1060.01,261.25 C1062.42,265.20 1062.56,270.53 1060.36,275.10 C1058.37,279.25 1051.29,286.87 1048.35,288.03 C1045.27,289.24 1028.87,291.78 1019.50,292.50 ZM 863.02 397.52 C864.73,399.58 869.72,399.41 870.84,397.25 C871.34,396.29 872.07,393.25 872.46,390.50 C873.57,382.82 879.14,371.76 884.67,366.25 C890.09,360.86 894.83,359.00 903.12,359.01 C911.54,359.01 915.74,360.64 921.07,365.98 C925.94,370.84 927.46,373.62 931.21,384.50 C933.97,392.49 934.65,394.61 935.44,394.65 C935.71,394.67 936.01,394.42 936.41,394.08 C936.48,394.02 936.56,393.95 936.64,393.88 C940.21,390.92 935.14,370.80 928.74,362.51 C920.79,352.21 914.18,348.83 901.84,348.74 C894.38,348.68 892.43,349.05 887.63,351.39 C880.84,354.71 872.26,363.86 868.44,371.84 C863.28,382.62 860.72,394.76 863.02,397.52 ZM 848.71 366.69 C850.22,370.62 855.81,366.11 860.12,357.46 C863.34,351.03 871.84,341.02 877.62,336.87 C885.24,331.40 891.20,329.52 901.00,329.51 C912.17,329.50 919.78,332.79 927.10,340.80 C932.29,346.48 938.00,356.48 938.00,359.90 C938.00,362.29 942.59,366.10 944.56,365.34 C946.48,364.60 946.38,363.06 943.97,356.79 C939.77,345.83 935.39,338.50 929.46,332.50 C918.98,321.89 906.80,318.04 894.24,321.37 C875.29,326.39 862.24,337.62 852.14,357.59 C849.98,361.87 848.43,365.96 848.71,366.69 ZM 1152.65 330.78 C1153.49,332.12 1154.59,332.77 1155.29,332.36 C1158.96,330.21 1167.96,323.88 1168.43,323.11 C1169.30,321.70 1164.55,307.78 1158.93,295.25 C1157.55,292.18 1156.40,290.96 1154.76,290.86 C1145.55,290.28 1138.04,290.36 1136.94,291.04 C1135.92,291.67 1136.22,292.97 1138.32,297.01 C1139.79,299.86 1141.00,302.64 1141.00,303.19 C1141.00,304.58 1150.88,327.98 1152.65,330.78 ZM 1012.91 370.72 C1017.87,374.06 1021.62,373.62 1027.30,369.05 C1030.62,366.38 1034.55,355.38 1033.47,351.77 C1031.91,346.54 1028.62,341.21 1026.00,339.66 C1019.55,335.85 1010.07,339.12 1006.64,346.34 C1002.78,354.49 1005.70,365.86 1012.91,370.72 ZM 1155.00 260.72 C1159.16,262.80 1165.34,262.33 1167.76,259.75 C1170.39,256.93 1174.00,248.64 1174.00,245.38 C1174.00,242.34 1171.49,236.20 1169.21,233.68 C1164.12,228.05 1158.04,228.03 1152.44,233.63 C1149.11,236.95 1149.00,237.32 1149.00,244.78 C1149.00,253.53 1150.95,258.70 1155.00,260.72 ZM 929.00 413.32 C937.09,413.90 947.11,412.99 950.22,411.38 C956.42,408.18 960.36,397.21 956.48,393.98 L 956.41 393.93 C955.76,393.38 955.36,393.05 955.00,393.09 C954.42,393.15 953.94,394.12 952.66,396.63 C951.79,398.35 949.89,401.16 948.45,402.88 L 945.82 406.00 L 904.41 406.00 C865.75,406.00 858.61,406.47 865.25,408.58 C868.60,409.65 883.16,410.90 904.50,411.97 C914.95,412.50 925.97,413.10 929.00,413.32 ZM 966.36 364.05 C962.95,365.35 960.44,365.24 959.25,363.75 C957.15,361.12 954.66,355.32 952.03,346.92 L 949.30 338.21 L 957.40 336.65 C970.19,334.17 978.00,333.53 978.00,334.96 C978.00,336.35 974.18,350.50 972.99,353.50 C970.11,360.79 968.60,363.20 966.36,364.05 ZM 1232.32 418.30 C1236.21,419.06 1246.87,419.02 1247.30,418.25 C1248.02,416.98 1245.94,400.56 1244.94,399.55 C1244.42,399.03 1244.00,397.90 1243.99,397.05 C1243.97,394.84 1239.72,386.72 1238.34,386.27 C1237.71,386.06 1234.41,389.18 1231.02,393.20 C1226.11,399.02 1224.97,401.01 1225.39,403.00 C1225.67,404.38 1226.31,407.61 1226.79,410.20 C1227.80,415.59 1229.24,417.70 1232.32,418.30 ZM 1192.50 459.14 C1201.11,461.66 1202.52,461.33 1202.39,456.85 C1202.21,450.52 1201.67,450.00 1195.28,449.98 C1187.82,449.95 1182.35,447.44 1176.09,441.19 C1169.24,434.33 1167.03,429.47 1165.73,418.37 C1164.98,411.92 1164.23,409.00 1163.34,409.00 C1159.58,409.00 1160.68,423.94 1165.23,434.93 C1167.44,440.25 1169.98,444.19 1173.77,448.17 C1179.59,454.30 1183.19,456.41 1192.50,459.14 ZM 1071.58 347.88 C1075.14,350.69 1077.24,350.25 1078.32,346.49 C1080.21,339.87 1080.87,337.36 1081.50,334.25 L 1082.16 331.00 L 1069.27 331.00 C1053.57,331.00 1051.99,331.68 1053.80,337.72 C1055.39,343.03 1057.53,344.67 1063.64,345.22 C1066.86,345.51 1069.83,346.51 1071.58,347.88 ZM 1149.50 269.61 C1153.63,271.48 1159.39,271.01 1159.82,268.75 C1160.06,267.43 1159.48,267.00 1157.43,267.00 C1153.71,267.00 1146.21,260.67 1143.90,255.58 C1139.95,246.89 1142.17,234.50 1149.08,226.65 C1153.12,222.06 1153.94,220.00 1151.73,220.00 C1148.86,220.00 1142.96,225.32 1139.84,230.73 C1136.71,236.14 1136.50,237.05 1136.57,245.50 C1136.63,252.93 1137.04,255.20 1138.92,258.50 C1141.96,263.86 1145.86,267.95 1149.50,269.61 ZM 976.00 409.15 C979.69,412.85 982.63,412.75 986.70,408.80 C989.66,405.94 990.00,405.03 990.00,399.99 C990.00,395.14 989.62,394.01 987.20,391.69 C983.61,388.25 979.21,388.15 975.69,391.41 C970.81,395.93 970.95,404.11 976.00,409.15 ZM 1053.51 382.02 C1053.85,382.56 1055.71,383.00 1057.66,383.00 C1065.50,383.00 1071.97,370.95 1069.36,361.20 C1068.81,359.16 1068.22,358.94 1064.17,359.20 L 1059.60 359.50 L 1057.51 368.00 C1056.35,372.67 1054.85,377.52 1054.16,378.77 C1053.47,380.02 1053.18,381.48 1053.51,382.02 ZM 1175.02 383.54 C1176.12,386.26 1176.67,387.75 1177.70,388.24 C1178.92,388.81 1180.80,387.98 1185.05,386.09 L 1185.72 385.80 L 1190.26 383.79 L 1189.66 378.06 C1188.87,370.50 1188.21,369.00 1185.64,369.02 C1183.03,369.04 1174.14,374.48 1173.35,376.54 C1173.03,377.36 1173.78,380.51 1175.02,383.54 ZM 1078.00 439.90 C1078.00,442.17 1080.04,440.79 1087.79,433.25 L 1095.75 425.50 L 1097.93 415.00 C1101.28,398.78 1101.55,396.00 1099.74,396.00 C1098.06,396.00 1097.00,398.03 1097.00,401.27 C1097.00,404.61 1094.01,416.11 1091.97,420.64 C1090.94,422.91 1087.37,427.93 1084.05,431.78 C1080.72,435.64 1078.00,439.29 1078.00,439.90 ZM 1199.27 380.25 C1201.57,384.37 1204.74,385.21 1207.13,382.36 C1208.56,380.63 1211.10,369.05 1210.33,367.75 C1210.08,367.34 1206.71,367.00 1202.83,367.00 L 1195.77 367.00 L 1196.48 371.75 C1196.86,374.36 1198.12,378.19 1199.27,380.25 ZM 1217.32 389.40 C1217.66,390.28 1218.33,391.00 1218.82,391.00 C1220.32,391.00 1231.00,379.24 1231.00,377.59 C1231.00,375.75 1223.89,371.00 1221.12,371.00 C1219.49,371.00 1219.03,372.22 1217.96,379.40 C1217.27,384.02 1216.98,388.52 1217.32,389.40 ZM 898.50 449.41 C904.53,450.81 919.00,446.50 919.00,443.30 C919.00,441.68 919.00,441.68 910.50,443.48 C906.65,444.30 900.24,444.97 896.25,444.98 C892.26,444.99 889.00,445.38 889.00,445.84 C889.00,446.60 893.24,448.19 898.50,449.41 ZM 1021.25 359.61 C1017.29,362.61 1013.98,360.52 1014.03,355.05 C1014.08,349.17 1018.47,345.87 1021.80,349.20 C1023.67,351.07 1023.30,358.05 1021.25,359.61 ZM 1185.25 423.34 C1190.57,425.48 1195.92,416.67 1191.51,413.01 C1189.40,411.26 1187.00,412.51 1187.00,415.35 C1187.00,416.67 1186.32,418.32 1185.50,419.00 C1183.68,420.51 1183.55,422.65 1185.25,423.34 Z" fill="rgb(28,35,71)"/>
<path d="M 419.65 377.95 C417.90,379.70 414.27,379.13 411.40,376.67 C409.21,374.78 408.60,373.26 408.23,368.71 L 407.76 363.09 L 411.14 363.64 C413.66,364.04 414.93,363.71 416.12,362.34 C419.61,358.32 420.00,354.17 419.98,321.60 C419.96,292.02 419.80,289.17 418.02,285.23 C416.96,282.89 415.39,280.70 414.54,280.38 C412.38,279.55 412.61,278.33 415.52,275.21 C419.68,270.74 420.11,266.87 419.79,236.55 C419.51,209.32 419.41,208.03 417.36,205.32 C415.65,203.05 414.50,202.52 411.50,202.62 L 407.77 202.75 L 408.24 197.84 C408.55,194.63 409.48,192.12 410.94,190.57 C413.06,188.30 413.74,188.20 426.33,188.25 C433.60,188.28 440.08,188.76 440.80,189.32 C442.73,190.82 445.41,197.44 447.96,207.00 C449.21,211.68 450.83,217.30 451.57,219.50 C452.30,221.70 454.78,230.02 457.07,238.00 C462.00,255.16 466.18,269.48 469.47,280.50 C470.78,284.90 474.18,296.83 477.02,307.00 C479.86,317.17 482.40,325.72 482.67,326.00 C482.94,326.27 483.01,317.72 482.83,307.00 C482.55,290.19 482.24,287.02 480.61,284.00 C479.57,282.08 478.32,280.24 477.83,279.92 C477.35,279.61 478.20,277.13 479.72,274.42 L 482.50 269.50 L 482.81 243.20 C483.14,215.10 482.41,207.89 478.82,204.04 C477.17,202.27 476.00,201.90 473.36,202.33 L 470.00 202.87 L 470.00 198.69 C470.01,196.35 470.84,193.13 471.90,191.40 L 473.79 188.30 L 487.86 188.30 C501.28,188.30 502.04,188.41 504.11,190.62 C505.53,192.13 506.45,194.67 506.77,197.92 L 507.25 202.90 L 503.01 202.70 C499.42,202.53 498.46,202.93 496.64,205.32 C494.59,208.03 494.49,209.31 494.19,236.82 C493.85,267.37 494.23,270.74 498.52,275.84 C500.72,278.46 500.82,278.91 499.42,280.07 C498.56,280.78 496.99,283.07 495.93,285.14 C494.14,288.65 494.00,291.32 494.00,322.71 C494.01,354.31 494.13,356.70 495.93,359.66 C498.06,363.15 501.60,364.80 503.30,363.10 C505.18,361.22 506.00,361.88 505.98,365.25 C505.92,373.74 499.73,380.38 493.88,378.23 C492.22,377.62 490.64,377.62 489.56,378.23 C488.62,378.75 486.65,378.84 485.18,378.43 C483.70,378.02 481.66,377.79 480.64,377.92 C477.05,378.39 474.02,376.94 472.53,374.06 C471.00,371.10 469.90,367.86 466.21,355.50 C460.55,336.51 457.71,327.26 456.82,324.83 C456.27,323.37 455.45,320.67 454.98,318.83 C454.52,317.00 453.47,313.25 452.65,310.50 C451.20,305.63 448.69,297.16 438.00,261.00 C435.16,251.38 432.53,242.82 432.16,242.00 C431.06,239.50 430.87,351.80 431.97,355.90 C433.50,361.58 436.57,364.33 440.64,363.67 C443.97,363.13 444.00,363.16 444.00,367.00 C444.00,372.32 442.68,375.32 439.40,377.47 C437.12,378.97 436.10,379.10 433.73,378.20 C431.64,377.42 430.18,377.42 428.42,378.22 C426.62,379.04 425.32,379.01 423.35,378.11 C421.50,377.27 420.38,377.22 419.65,377.95 ZM 711.85 378.11 C706.43,381.55 700.00,375.57 700.00,367.08 C700.00,363.09 700.03,363.06 703.61,363.28 C706.53,363.46 707.62,362.97 709.36,360.68 C711.44,357.94 711.51,356.84 711.80,323.47 C712.12,286.58 712.06,286.06 706.90,280.90 C704.91,278.91 704.91,278.90 707.43,275.91 C711.80,270.70 712.16,267.48 711.82,236.33 L 711.50 207.16 L 709.01 204.51 C706.93,202.30 705.97,201.97 703.12,202.50 L 699.72 203.14 L 700.25 198.46 C700.54,195.88 701.67,192.59 702.75,191.14 C704.61,188.64 705.20,188.49 714.11,188.36 C719.27,188.28 724.02,188.64 724.66,189.16 C725.40,189.75 726.06,189.71 726.47,189.05 C726.83,188.47 728.43,188.00 730.04,188.00 C734.56,188.00 735.49,189.96 741.93,213.00 C742.93,216.57 745.18,224.23 746.94,230.00 C748.69,235.77 751.39,245.04 752.94,250.58 C754.48,256.13 756.22,262.21 756.79,264.08 C759.81,274.04 762.47,283.10 766.89,298.50 C768.00,302.35 769.86,309.32 771.03,313.98 C772.20,318.65 773.56,323.15 774.05,323.98 C774.59,324.91 774.94,318.47 774.95,307.50 C774.95,292.22 774.68,288.90 773.14,285.50 C772.14,283.30 770.58,280.89 769.67,280.14 C768.16,278.89 768.19,278.57 770.11,276.14 C774.69,270.31 775.00,268.13 775.00,241.43 C775.00,206.96 773.65,201.25 765.76,202.31 L 762.00 202.81 L 762.00 198.75 C762.00,195.98 762.78,193.67 764.45,191.47 L 766.91 188.26 L 780.91 188.38 C793.65,188.49 795.05,188.68 796.45,190.50 C798.46,193.12 799.23,196.09 798.83,199.63 C798.53,202.26 798.20,202.47 794.95,202.20 C790.80,201.84 788.93,203.53 786.88,209.50 C785.85,212.49 785.50,219.95 785.50,239.00 C785.50,261.09 785.74,265.12 787.29,269.13 C788.27,271.67 789.96,274.55 791.04,275.53 C793.40,277.67 793.56,279.57 791.45,280.38 C790.60,280.71 789.01,282.99 787.92,285.46 C786.15,289.44 785.86,293.03 785.31,317.75 C784.62,348.55 785.44,357.08 789.55,361.85 C791.63,364.27 792.10,364.40 794.91,363.34 C797.99,362.18 798.00,362.19 798.00,365.62 C798.00,370.27 795.67,375.53 792.83,377.30 C791.17,378.34 788.50,378.63 783.50,378.33 C779.65,378.10 774.72,377.93 772.56,377.95 C766.89,378.00 764.51,375.26 761.37,365.08 C759.91,360.36 758.39,355.60 757.98,354.50 C757.56,353.40 756.73,350.70 756.12,348.50 C754.97,344.34 753.22,338.41 748.13,321.50 C746.47,316.00 744.38,308.80 743.47,305.50 C742.57,302.20 740.99,296.80 739.97,293.50 C735.60,279.38 733.11,271.12 731.53,265.50 C730.61,262.20 728.42,255.00 726.67,249.50 L 723.50 239.50 L 723.22 295.00 C722.92,352.95 723.12,356.35 727.22,361.55 C729.17,364.04 733.35,364.86 734.51,362.98 C735.67,361.11 737.00,363.08 737.00,366.66 C737.00,374.52 731.55,380.40 726.16,378.36 C724.29,377.66 722.69,377.66 721.13,378.36 C719.55,379.06 717.96,379.05 716.02,378.32 C714.40,377.70 712.64,377.62 711.85,378.11 ZM 687.98 379.02 C683.53,383.79 681.16,382.90 680.04,376.04 C679.32,371.60 677.33,371.16 672.57,374.39 C665.49,379.19 652.38,380.15 643.63,376.49 C640.34,375.12 639.74,375.12 637.57,376.55 C636.24,377.42 633.65,378.08 631.83,378.02 C630.00,377.97 625.05,377.96 620.84,378.01 C613.26,378.10 613.15,378.07 610.59,374.71 C608.67,372.19 608.00,370.12 608.00,366.72 L 608.00 362.13 L 611.26 362.66 C615.21,363.30 617.30,361.34 618.90,355.50 C620.35,350.17 620.37,296.81 618.91,290.02 C618.31,287.23 616.73,283.64 615.40,282.06 L 612.97 279.18 L 616.24 273.93 L 619.50 268.68 L 619.50 239.09 C619.50,217.84 619.15,208.72 618.27,206.74 C616.68,203.17 612.56,201.17 610.03,202.75 C607.85,204.11 607.00,203.45 607.00,200.38 C607.00,197.42 608.87,193.09 611.37,190.25 C613.59,187.72 618.30,187.27 622.48,189.17 C624.45,190.07 625.33,190.07 626.23,189.17 C627.92,187.48 634.74,187.73 637.92,189.61 C640.45,191.11 640.91,191.10 643.90,189.55 C645.69,188.63 650.27,187.61 654.08,187.29 C660.17,186.78 661.81,187.04 667.45,189.44 C675.16,192.72 677.30,192.53 678.00,188.49 C678.40,186.11 679.08,185.43 681.32,185.18 C685.19,184.73 686.64,186.26 688.58,192.83 C690.01,197.68 690.16,201.53 689.63,219.50 C688.84,246.36 687.43,251.54 681.12,250.80 C678.50,250.50 678.50,250.48 677.85,239.00 C677.17,226.72 674.84,217.87 670.48,210.97 C667.28,205.90 664.34,204.00 659.71,204.00 C653.56,204.00 648.53,207.64 647.39,212.93 C647.09,214.35 646.42,216.63 645.90,218.00 C645.38,219.38 645.08,231.46 645.23,245.00 L 645.50 269.50 L 648.00 269.69 C657.84,270.42 661.26,266.49 660.80,255.00 C660.51,247.83 660.60,247.49 662.81,247.17 C665.54,246.79 667.59,248.31 669.61,252.21 C672.70,258.19 672.85,295.48 669.83,304.40 C668.08,309.53 664.06,312.64 661.16,311.08 C659.41,310.15 659.22,309.54 660.03,307.42 C661.73,302.94 661.19,293.83 659.01,290.25 C657.13,287.16 656.73,287.00 651.01,287.00 L 645.00 287.00 L 645.04 316.25 C645.09,346.99 645.59,352.64 648.64,356.72 C651.21,360.16 657.14,362.38 661.53,361.56 C665.76,360.77 671.19,356.22 673.36,351.65 C676.79,344.43 680.97,321.20 680.99,309.27 C681.00,305.52 681.30,304.96 683.67,304.37 C687.76,303.34 690.00,306.76 690.00,314.03 C690.00,317.23 690.43,322.02 690.95,324.67 C694.06,340.42 694.32,343.75 692.83,348.29 C691.83,351.30 691.65,353.51 692.26,355.12 C693.10,357.33 692.70,365.07 691.35,372.77 C691.03,374.56 689.52,377.38 687.98,379.02 ZM 394.69 380.25 C392.40,382.26 392.12,382.30 389.75,380.92 C388.61,380.26 388.00,378.68 388.00,376.42 C388.00,374.39 387.43,372.72 386.63,372.41 C385.87,372.12 382.43,373.36 378.99,375.17 C371.00,379.35 362.37,380.06 353.62,377.24 C347.87,375.38 347.67,375.38 344.12,377.22 C341.70,378.48 339.51,378.90 337.50,378.48 C335.85,378.14 333.15,377.89 331.50,377.94 C322.51,378.18 321.67,378.04 319.41,375.92 C316.73,373.40 314.70,368.09 315.18,364.83 C315.45,362.99 316.16,362.61 319.44,362.56 C322.85,362.51 323.65,362.03 325.44,359.00 C327.41,355.66 327.50,354.03 327.50,323.00 C327.50,291.42 327.44,290.37 325.27,286.00 C324.05,283.52 322.49,280.73 321.81,279.79 C320.78,278.38 320.93,277.70 322.72,275.79 C326.90,271.33 327.32,268.52 327.78,241.55 C328.25,214.08 327.49,206.66 323.87,203.38 C322.61,202.24 321.11,201.93 318.99,202.35 C315.08,203.13 314.25,201.30 316.05,195.85 C317.92,190.17 321.42,187.68 326.49,188.43 C331.64,189.18 332.68,189.18 337.43,188.39 C340.24,187.92 342.27,188.23 344.56,189.46 C347.51,191.05 347.99,191.06 350.85,189.58 C352.55,188.70 357.22,187.70 361.23,187.36 C367.67,186.82 369.32,187.06 375.27,189.45 C383.59,192.77 385.40,192.56 385.82,188.18 C386.11,185.15 386.39,184.91 389.22,185.19 C391.21,185.39 393.05,186.50 394.40,188.32 C396.35,190.94 396.52,192.60 396.76,211.73 C397.15,243.21 395.51,251.55 389.05,250.80 C386.53,250.50 386.49,250.38 385.83,239.00 C385.12,226.90 383.84,221.56 379.62,213.24 C376.26,206.61 372.55,204.00 366.46,204.00 C362.38,204.00 361.30,204.46 358.53,207.40 C353.87,212.34 353.00,218.35 353.00,245.67 L 353.00 269.00 L 357.92 269.00 C360.62,269.00 363.56,268.72 364.46,268.38 C367.61,267.17 369.22,262.15 368.85,254.61 L 368.50 247.50 L 371.39 247.50 C376.31,247.50 378.29,251.40 378.85,262.23 C379.96,283.70 379.70,297.64 378.08,303.01 C376.20,309.25 372.03,313.16 369.21,311.33 C368.27,310.72 367.65,309.39 367.83,308.36 C368.01,307.34 368.38,303.80 368.66,300.50 C369.10,295.34 368.84,294.01 366.80,291.00 C364.61,287.76 364.00,287.48 358.66,287.20 L 352.90 286.90 L 353.20 319.20 C353.47,347.86 353.70,351.87 355.27,354.74 C360.21,363.77 373.36,363.52 379.59,354.28 C384.05,347.66 387.96,328.99 389.28,308.00 C389.47,305.01 389.89,304.45 392.18,304.19 C395.96,303.75 397.34,306.75 398.12,317.00 C398.48,321.67 399.31,329.10 399.97,333.50 C400.62,337.90 400.92,343.98 400.63,347.00 C400.33,350.02 399.85,357.35 399.57,363.28 C399.03,374.29 398.20,377.17 394.69,380.25 ZM 282.29 375.65 C277.06,378.58 274.52,379.35 269.15,379.66 C258.84,380.24 252.81,377.30 244.67,367.72 C239.89,362.08 235.14,353.19 233.07,346.00 C232.35,343.52 231.43,340.60 231.01,339.50 C228.85,333.84 225.33,313.77 224.44,302.00 C223.65,291.58 221.69,284.37 218.83,281.32 C216.79,279.14 216.76,278.92 218.38,277.14 C220.66,274.62 224.00,265.28 224.00,261.43 C224.00,258.37 224.35,256.08 227.53,238.50 C230.98,219.38 238.61,203.16 248.23,194.46 C256.11,187.34 260.59,185.67 270.41,186.21 C279.94,186.73 284.56,188.78 290.60,195.17 C297.80,202.79 301.69,211.74 303.99,226.00 C304.65,230.12 305.88,234.58 306.71,235.89 C309.04,239.56 306.91,245.71 302.70,247.49 C300.95,248.22 299.19,248.62 298.80,248.37 C298.40,248.13 296.91,250.21 295.50,253.00 C292.85,258.23 289.40,260.75 286.44,259.61 C285.07,259.09 284.84,258.02 285.23,253.94 C285.64,249.72 285.41,248.75 283.80,247.89 C280.83,246.30 278.01,240.88 278.00,236.75 C278.00,233.44 278.29,233.00 280.44,233.00 C288.02,233.00 287.83,215.21 280.15,206.02 C277.77,203.16 276.62,202.63 271.90,202.24 C267.06,201.84 266.03,202.10 263.25,204.44 C255.84,210.68 252.99,222.73 253.01,247.82 C253.02,263.69 254.28,270.77 258.00,276.00 C259.98,278.77 260.05,279.29 258.73,280.80 C253.96,286.24 253.56,288.50 253.17,311.98 C252.66,342.84 254.55,353.36 261.61,358.91 C266.65,362.87 271.72,361.32 275.25,354.72 C277.36,350.76 277.50,349.30 277.50,331.40 C277.50,310.16 277.03,308.34 271.81,309.39 C269.05,309.94 269.00,309.87 269.00,305.23 C269.01,296.66 274.99,290.31 280.63,292.88 C282.61,293.78 284.09,293.80 286.68,292.94 C289.25,292.09 290.82,292.10 292.87,292.95 C294.71,293.71 296.46,293.78 298.12,293.15 C304.86,290.58 310.00,295.17 310.00,303.75 C310.00,308.81 309.84,309.19 307.93,308.69 C302.18,307.19 300.51,315.17 301.24,340.66 C301.72,357.61 302.89,363.00 306.10,363.00 C307.71,363.00 308.00,363.75 308.00,367.87 C308.00,374.34 305.25,378.00 300.38,378.00 C296.63,378.00 292.14,376.07 290.07,373.58 C288.92,372.20 288.05,372.43 282.29,375.65 ZM 546.82 377.59 C545.32,378.37 543.05,379.00 541.77,379.00 C536.72,379.00 532.00,373.05 532.00,366.69 C532.00,363.40 532.14,363.28 535.68,363.39 C544.00,363.64 545.55,355.40 544.76,314.90 C544.28,289.99 543.72,286.64 539.18,281.76 L 536.64 279.01 L 538.77 276.74 C544.20,270.97 544.50,268.87 544.56,236.00 C544.59,219.23 544.43,204.94 544.20,204.25 C543.65,202.60 540.54,202.66 537.20,204.41 C529.13,208.61 523.23,230.26 524.44,251.25 L 525.12 263.00 L 522.31 262.98 C518.67,262.96 517.65,262.23 515.53,258.09 C513.30,253.73 511.92,232.44 512.26,207.33 C512.49,189.63 512.56,189.09 514.92,186.58 C516.26,185.16 518.40,184.00 519.67,184.00 C521.57,184.00 522.00,184.53 522.00,186.88 C522.00,191.59 524.20,192.56 529.27,190.11 C535.33,187.18 541.62,186.51 546.67,188.26 C549.11,189.11 551.40,189.36 552.17,188.87 C554.13,187.63 560.42,187.82 561.76,189.16 C562.63,190.03 563.31,189.99 564.52,188.98 C567.13,186.82 577.71,187.30 583.38,189.85 C588.84,192.30 591.00,191.59 591.00,187.35 C591.00,181.78 598.37,183.93 599.99,189.98 C601.53,195.70 601.06,246.40 599.40,252.90 C597.77,259.34 595.83,262.55 593.18,263.24 C588.98,264.34 588.48,262.81 588.79,249.79 C589.32,227.61 585.13,211.25 577.41,205.36 C575.50,203.91 573.14,202.98 571.80,203.17 L 569.50 203.50 L 569.24 233.84 C569.07,252.87 569.36,265.64 570.03,268.10 C570.61,270.26 572.48,273.62 574.19,275.56 L 577.29 279.09 L 574.74 281.80 C569.29,287.57 569.00,289.67 569.02,322.37 C569.03,354.65 569.53,358.58 574.05,362.25 C575.64,363.53 577.19,363.90 579.16,363.46 C582.45,362.74 582.64,363.56 580.87,370.58 C579.03,377.93 573.09,380.92 567.02,377.56 C564.91,376.39 564.13,376.40 561.82,377.59 C558.43,379.35 555.23,379.33 552.02,377.56 C549.91,376.39 549.13,376.40 546.82,377.59 ZM 532.50 504.70 C527.60,507.48 518.19,507.79 513.22,505.34 C508.23,502.88 505.00,498.48 505.00,494.12 C505.00,489.52 506.43,488.00 510.75,488.00 C513.63,488.00 514.31,488.49 515.56,491.48 C516.47,493.66 517.91,495.19 519.40,495.57 C526.41,497.32 529.84,493.57 531.02,482.87 C531.46,478.82 531.70,475.37 531.55,475.22 C531.39,475.06 529.68,476.52 527.73,478.47 C524.68,481.52 523.55,482.00 519.44,482.00 C506.92,482.00 500.22,466.59 504.46,447.51 C505.90,441.08 506.88,439.00 510.18,435.42 C516.73,428.31 522.77,427.41 528.97,432.62 C530.68,434.07 532.20,435.08 532.34,434.87 C532.48,434.67 533.12,433.27 533.76,431.78 C535.21,428.40 539.37,427.12 541.79,429.31 C543.33,430.70 543.50,433.76 543.50,459.78 L 543.50 488.70 L 540.00 495.57 C537.32,500.83 535.56,502.97 532.50,504.70 ZM 259.30 483.75 C258.37,484.44 256.80,485.00 255.81,485.00 C253.47,485.00 250.00,481.52 250.00,479.17 C250.00,476.02 249.12,476.20 244.95,480.16 C241.44,483.50 240.30,484.00 236.21,484.00 C225.57,483.99 219.87,475.55 219.66,459.50 C219.51,447.84 221.78,440.54 227.55,434.17 C231.40,429.92 232.18,429.50 236.30,429.50 C239.45,429.50 241.77,430.20 243.92,431.78 L 247.00 434.06 L 247.07 430.78 C247.11,428.98 247.49,423.49 247.92,418.58 C248.58,411.06 249.06,409.37 250.96,407.83 C253.92,405.43 257.25,405.51 259.52,408.03 C261.26,409.94 261.30,411.18 260.26,429.78 C259.53,442.81 259.47,455.10 260.07,466.00 C260.90,480.95 260.83,482.62 259.30,483.75 ZM 586.17 482.35 C583.79,484.50 579.72,484.46 577.73,482.25 C576.42,480.81 576.02,476.25 575.42,456.24 C574.75,433.68 574.83,431.85 576.51,429.99 C580.11,426.01 586.00,428.94 586.00,434.72 C586.00,437.75 586.57,437.62 591.13,433.50 C594.35,430.59 595.77,430.00 599.50,430.00 C604.03,430.00 606.36,431.40 608.89,435.64 C609.93,437.39 610.12,437.33 612.10,434.72 C618.23,426.64 629.00,427.30 633.52,436.04 C636.10,441.02 634.62,479.17 631.71,482.80 C631.11,483.55 629.17,483.97 627.12,483.80 C620.92,483.28 620.40,481.06 621.92,461.76 C622.90,449.31 622.94,444.76 622.08,443.14 C620.69,440.55 617.86,440.37 615.79,442.75 C613.54,445.33 611.00,458.13 611.00,466.88 C611.00,475.13 609.78,480.89 607.77,482.16 C605.51,483.60 601.35,483.05 599.58,481.09 C598.02,479.36 597.92,477.48 598.56,461.79 C599.20,446.17 599.10,444.24 597.56,442.71 C592.41,437.55 588.00,449.83 588.00,469.36 C588.00,479.07 587.74,480.93 586.17,482.35 ZM 670.51 480.99 C660.11,487.42 647.92,482.59 643.62,470.32 C640.56,461.61 640.79,450.91 644.22,441.50 C646.59,435.03 654.80,429.00 661.25,429.00 C665.94,429.00 673.08,432.89 675.74,436.90 C681.59,445.70 682.29,461.33 677.32,472.08 C675.06,476.96 673.30,479.27 670.51,480.99 ZM 744.50 482.12 C735.21,486.39 725.20,482.14 720.83,472.06 C718.30,466.22 717.30,453.27 718.96,447.72 C722.43,436.07 725.72,431.97 733.30,429.90 C742.42,427.41 751.22,432.68 755.10,442.95 C756.89,447.68 757.13,449.99 756.71,458.50 C756.04,472.01 752.78,478.32 744.50,482.12 ZM 361.77 482.45 C355.57,485.04 350.22,483.64 346.05,478.33 C343.53,475.13 343.22,465.41 345.50,461.00 C348.31,455.57 355.39,451.41 364.00,450.15 C368.36,449.51 368.51,449.36 368.81,445.67 C369.21,440.90 367.68,439.00 363.46,439.00 C360.81,439.00 359.55,439.78 357.00,443.00 C353.77,447.08 351.44,447.84 347.93,445.96 C345.51,444.67 345.30,438.45 347.57,435.21 C350.25,431.37 356.74,428.75 363.54,428.75 C370.11,428.75 372.94,429.79 377.21,433.77 C380.96,437.26 382.20,444.24 381.81,459.69 C381.52,471.78 381.60,472.46 383.50,472.81 C389.16,473.83 388.35,481.07 382.36,483.05 C379.70,483.92 378.19,483.91 375.94,482.98 C374.32,482.31 372.99,481.47 372.97,481.13 C372.95,480.78 372.28,479.63 371.48,478.57 C370.04,476.67 369.98,476.67 367.74,478.77 C366.49,479.94 363.81,481.60 361.77,482.45 ZM 293.22 482.96 C283.37,485.69 274.67,481.83 269.65,472.50 C267.83,469.12 267.50,466.87 267.52,458.00 C267.55,446.12 269.47,440.24 275.30,434.17 C280.85,428.40 286.57,426.89 294.22,429.19 C300.38,431.03 303.50,435.85 303.50,443.50 C303.50,448.75 303.07,450.22 300.61,453.44 C297.65,457.33 289.01,461.99 284.72,462.02 C280.57,462.04 279.52,463.42 280.98,466.95 C282.49,470.59 285.53,473.00 288.62,473.00 C290.52,473.00 292.55,471.12 298.07,464.25 C299.46,462.53 302.54,462.68 304.43,464.57 C309.19,469.33 302.45,480.39 293.22,482.96 ZM 493.84 482.69 C492.32,484.53 486.46,484.32 484.51,482.37 C483.06,480.92 482.95,478.60 483.58,462.02 L 484.28 443.31 L 481.94 441.67 C479.93,440.26 479.30,440.22 477.55,441.38 C473.63,443.97 471.77,451.39 471.25,466.50 C470.98,474.20 470.31,481.06 469.76,481.75 C468.19,483.70 461.25,483.34 460.16,481.25 C459.65,480.29 458.92,468.80 458.52,455.72 C457.74,429.92 457.89,429.00 462.97,429.00 C466.34,429.00 469.00,431.79 469.00,435.33 C469.00,438.77 470.35,438.72 472.87,435.18 C475.62,431.32 481.96,428.57 486.19,429.41 C493.99,430.95 497.00,436.75 497.00,450.22 C497.00,462.53 495.20,481.06 493.84,482.69 ZM 789.33 482.64 C784.39,484.70 773.17,484.40 769.41,482.11 C764.94,479.38 762.00,475.20 762.00,471.57 C762.00,467.55 763.56,466.00 767.58,466.00 C770.04,466.00 771.37,466.79 773.43,469.49 C776.68,473.76 780.11,474.81 783.51,472.59 C786.44,470.66 786.78,467.02 784.25,464.72 C783.28,463.85 779.00,461.48 774.73,459.45 C765.12,454.89 762.48,451.63 762.55,444.44 C762.63,435.68 768.97,429.27 778.50,428.29 C788.53,427.25 797.00,432.54 797.00,439.83 C797.00,446.85 790.80,448.07 786.00,442.00 C784.26,439.80 782.07,438.00 781.14,438.00 C778.36,438.00 775.00,440.95 775.00,443.40 C775.00,446.36 777.04,448.10 784.96,451.92 C792.88,455.74 796.32,458.92 797.99,463.96 C800.41,471.31 796.56,479.61 789.33,482.64 ZM 338.37 481.93 C336.34,483.52 334.29,484.00 329.47,484.00 C323.97,484.00 322.84,483.65 320.16,481.15 C316.00,477.27 315.51,474.77 315.50,457.75 L 315.50 443.00 L 312.82 443.00 C309.53,443.00 307.00,440.63 307.00,437.55 C307.00,434.71 309.01,432.95 313.26,432.09 C316.45,431.44 316.51,431.32 317.00,424.91 C317.61,416.92 319.87,413.00 323.87,413.00 C328.59,413.00 330.18,415.81 329.89,423.66 L 329.64 430.50 L 334.05 430.82 C339.41,431.21 341.00,432.39 341.00,436.00 C341.00,439.50 339.61,440.59 334.00,441.51 C331.52,441.91 329.17,442.75 328.77,443.37 C327.59,445.17 327.87,468.90 329.10,471.18 C330.02,472.91 330.81,473.13 334.21,472.58 C339.01,471.81 341.00,473.12 341.00,477.05 C341.00,478.89 340.09,480.57 338.37,481.93 ZM 713.55 481.55 C711.46,483.63 710.15,484.00 704.77,484.00 C697.64,484.00 694.95,482.65 692.24,477.69 C690.79,475.03 690.51,471.91 690.55,458.80 L 690.60 443.10 L 687.07 442.80 C684.23,442.56 683.35,441.95 682.56,439.70 C681.24,435.93 682.65,433.92 687.56,432.54 L 691.50 431.44 L 692.07 424.82 C692.77,416.75 694.93,413.00 698.87,413.00 C703.59,413.00 705.18,415.81 704.89,423.66 L 704.64 430.50 L 709.05 430.82 C714.24,431.19 716.00,432.39 716.00,435.55 C716.00,438.81 713.71,440.71 708.77,441.53 C706.42,441.92 704.17,442.75 703.77,443.37 C703.36,443.99 703.02,450.41 703.02,457.63 C703.00,472.42 703.48,473.56 709.27,472.48 C715.56,471.30 718.20,476.89 713.55,481.55 ZM 425.55 482.54 C424.20,483.89 422.38,485.00 421.50,485.00 C419.20,485.00 415.00,480.45 415.00,477.97 C415.00,476.80 414.50,470.37 413.89,463.67 C412.70,450.64 414.14,416.40 416.09,411.26 C418.11,405.96 422.20,404.68 425.95,408.17 C428.25,410.31 428.27,410.52 427.40,422.42 C426.31,437.33 426.25,459.59 427.26,471.29 C427.99,479.78 427.93,480.16 425.55,482.54 ZM 447.00 481.00 C444.49,483.51 441.89,483.54 438.86,481.09 C436.55,479.22 436.49,478.75 436.15,460.00 C435.97,449.46 436.10,439.27 436.46,437.36 C437.70,430.73 443.03,428.03 447.00,432.00 C448.88,433.88 449.00,435.33 449.00,456.50 C449.00,477.67 448.88,479.12 447.00,481.00 ZM 402.17 481.35 C399.98,483.33 397.03,483.47 394.62,481.71 C392.06,479.84 390.72,467.32 391.26,450.30 C391.78,433.82 392.81,431.00 398.32,431.00 C400.13,431.00 402.14,431.54 402.80,432.20 C403.66,433.06 404.00,439.88 404.00,456.55 C404.00,477.70 403.84,479.83 402.17,481.35 ZM 237.74 335.50 C239.15,339.87 239.08,333.86 237.56,319.24 C235.07,295.43 235.89,245.46 239.00,231.53 C239.93,227.35 239.47,225.62 238.04,227.93 C236.62,230.23 233.03,248.80 231.55,261.55 C230.77,268.17 229.59,274.80 228.92,276.27 C227.98,278.34 227.97,279.26 228.90,280.38 C229.56,281.17 230.52,287.37 231.05,294.16 C232.28,310.19 235.02,327.08 237.74,335.50 ZM 552.02 333.50 C552.07,339.95 553.50,337.63 554.48,329.50 C555.81,318.59 555.23,234.21 553.81,230.13 L 552.54 226.50 L 551.88 232.50 C551.51,235.80 551.17,246.05 551.11,255.28 C551.03,267.27 550.60,273.03 549.59,275.45 C548.37,278.36 548.37,279.40 549.60,282.97 C550.86,286.63 551.82,306.71 552.02,333.50 ZM 759.73 334.00 C761.38,337.81 760.94,329.50 759.12,322.34 C755.67,308.79 753.28,299.77 750.96,291.50 C749.73,287.10 748.15,281.48 747.45,279.00 C746.76,276.52 744.10,267.98 741.55,260.00 C735.72,241.80 734.03,236.26 733.15,232.57 C732.44,229.62 729.97,227.71 730.04,230.17 C730.07,231.47 731.43,237.54 734.37,249.50 C736.02,256.19 739.71,269.12 742.80,279.00 C743.92,282.58 746.25,290.45 747.98,296.50 C749.71,302.55 751.95,309.98 752.96,313.00 C753.97,316.02 755.76,321.65 756.94,325.50 C758.12,329.35 759.38,333.17 759.73,334.00 ZM 467.73 334.00 C469.16,337.71 468.97,332.06 467.46,325.47 C466.58,321.64 465.63,317.15 465.35,315.50 C465.07,313.85 464.03,309.80 463.03,306.50 C462.03,303.20 460.21,296.67 458.97,292.00 C456.84,283.89 452.05,268.43 445.97,250.00 C444.43,245.32 442.85,239.93 442.46,238.00 C441.52,233.33 438.81,228.10 438.23,229.84 C437.69,231.43 439.55,241.49 441.68,248.50 C444.82,258.83 446.81,265.69 448.52,272.00 C449.48,275.58 451.09,280.98 452.08,284.00 C453.08,287.02 455.32,294.23 457.07,300.00 C460.92,312.73 466.94,331.94 467.73,334.00 ZM 735.83 471.97 C736.86,472.57 737.35,472.87 737.84,472.89 C738.32,472.90 738.81,472.64 739.81,472.10 L 740.04 471.98 C742.94,470.43 745.35,460.90 744.74,453.37 C743.82,441.89 738.36,436.96 733.61,443.32 C729.18,449.26 730.70,468.97 735.83,471.97 ZM 657.10 468.92 C659.66,473.13 663.77,472.94 665.99,468.50 C667.95,464.58 668.04,448.77 666.12,444.24 C664.21,439.69 660.41,438.83 657.46,442.26 C653.28,447.11 653.08,462.31 657.10,468.92 ZM 234.31 469.35 C235.77,471.57 236.75,472.06 239.30,471.81 C244.19,471.33 245.50,467.72 245.50,454.66 C245.50,444.56 245.34,443.70 243.20,441.96 C240.04,439.40 236.99,440.68 234.55,445.58 C231.83,451.03 231.69,465.35 234.31,469.35 ZM 518.00 466.82 C519.69,470.53 520.34,471.09 522.63,470.82 C527.11,470.28 529.41,465.98 529.85,457.31 C530.34,447.53 528.84,442.25 525.31,441.36 C521.59,440.43 519.75,441.96 517.79,447.58 C515.51,454.16 515.59,461.50 518.00,466.82 ZM 626.84 311.34 C627.12,330.68 627.51,336.89 628.36,336.04 C630.12,334.28 630.52,231.79 628.78,228.75 C627.70,226.85 627.41,229.99 626.93,249.00 C626.49,266.59 626.01,272.31 624.75,275.22 C623.25,278.67 623.25,279.19 624.79,282.22 C626.18,284.96 626.52,289.74 626.84,311.34 ZM 334.65 310.87 C335.13,329.77 335.63,336.77 336.41,335.99 C338.01,334.39 337.94,229.82 336.34,229.28 C335.49,229.00 335.07,234.48 334.79,249.70 C334.49,265.55 334.02,271.52 332.80,274.80 C331.41,278.52 331.39,279.47 332.59,281.88 C333.60,283.91 334.15,291.65 334.65,310.87 ZM 403.37 421.93 C399.91,424.65 395.76,424.55 392.41,421.68 C390.07,419.66 389.80,418.87 390.40,415.71 C391.59,409.31 398.15,406.97 403.37,411.07 C407.01,413.94 407.01,419.06 403.37,421.93 ZM 448.37 421.93 C446.92,423.07 444.50,424.00 443.00,424.00 C438.96,424.00 435.00,420.47 435.00,416.88 C435.00,412.89 438.95,409.00 443.00,409.00 C450.00,409.00 453.64,417.78 448.37,421.93 ZM 357.20 471.80 C359.33,473.93 363.08,473.13 366.10,469.89 C368.39,467.44 369.00,465.86 369.00,462.39 C369.00,458.63 368.71,458.00 366.95,458.00 C364.06,458.00 359.40,460.59 357.56,463.22 C355.70,465.87 355.52,470.12 357.20,471.80 ZM 280.00 450.27 C280.00,454.22 280.02,454.25 283.25,453.61 C290.24,452.25 294.46,446.50 292.17,441.48 C291.20,439.34 290.42,438.93 287.77,439.19 C283.57,439.60 280.00,444.68 280.00,450.27 ZM 284.83 334.25 C284.62,341.81 284.74,348.00 285.10,348.00 C285.47,348.00 286.27,346.00 286.88,343.56 C288.89,335.58 287.96,317.60 285.66,320.03 C285.42,320.29 285.04,326.69 284.83,334.25 ZM 1167.31 317.06 C1166.93,316.14 1166.51,315.23 1166.11,314.50 C1165.19,312.85 1162.69,307.11 1160.54,301.75 L 1156.63 292.00 L 1146.82 292.00 C1140.64,292.00 1137.00,292.39 1137.00,293.05 C1137.00,293.62 1137.90,295.96 1139.00,298.24 C1139.57,299.41 1140.08,300.58 1140.45,301.51 C1139.95,300.33 1139.18,298.68 1138.32,297.01 C1136.22,292.97 1135.92,291.67 1136.94,291.04 C1138.04,290.36 1145.55,290.28 1154.76,290.86 C1156.40,290.96 1157.55,292.18 1158.93,295.25 C1162.46,303.11 1165.65,311.53 1167.31,317.06 ZM 1091.99 429.16 C1095.60,425.43 1096.04,424.09 1096.47,420.50 C1096.80,417.75 1097.50,413.06 1098.03,410.08 C1100.05,398.81 1098.68,397.07 1096.33,405.92 C1096.74,403.92 1097.00,402.25 1097.00,401.27 C1097.00,398.03 1098.06,396.00 1099.74,396.00 C1101.55,396.00 1101.28,398.78 1097.93,415.00 L 1095.75 425.50 ZM 1149.50 269.61 C1147.55,268.72 1145.52,267.13 1143.59,265.02 C1144.09,265.53 1144.62,266.04 1145.18,266.55 C1148.20,269.27 1149.85,270.00 1153.00,270.00 C1157.33,270.00 1158.39,268.57 1154.75,267.65 C1151.07,266.73 1143.96,258.73 1142.95,254.39 C1142.45,252.25 1142.15,250.13 1142.03,248.06 C1142.24,250.72 1142.85,253.28 1143.90,255.58 C1146.21,260.67 1153.71,267.00 1157.43,267.00 C1159.48,267.00 1160.06,267.43 1159.82,268.75 C1159.39,271.01 1153.63,271.48 1149.50,269.61 ZM 894.50 430.48 C878.37,429.70 865.05,428.12 863.22,426.82 C864.23,427.49 868.90,427.98 878.25,428.41 C886.64,428.79 895.30,429.53 897.50,430.04 C899.00,430.38 902.07,430.77 906.41,431.19 C902.03,430.89 897.67,430.63 894.50,430.48 ZM 937.01 356.23 C939.40,361.02 941.24,363.63 942.39,363.85 C944.12,364.17 944.23,363.75 943.59,358.85 C942.70,351.91 938.07,342.56 932.23,335.54 C936.81,340.98 940.45,347.61 943.97,356.79 C946.38,363.06 946.48,364.60 944.56,365.34 C942.59,366.10 938.00,362.29 938.00,359.90 C938.00,359.04 937.64,357.75 937.01,356.23 ZM 1030.83 345.52 C1031.89,347.44 1032.83,349.61 1033.47,351.77 C1034.17,354.13 1032.74,359.64 1030.73,363.93 C1031.61,361.47 1032.00,358.43 1032.00,354.59 C1032.00,350.76 1031.65,347.83 1030.83,345.52 ZM 1136.65 249.05 C1136.93,252.78 1137.66,255.86 1138.98,258.62 L 1138.92 258.50 C1137.38,255.79 1136.83,253.78 1136.65,249.05 ZM 913.12 331.24 C909.52,330.05 905.56,329.50 901.00,329.51 C906.96,329.50 909.46,329.78 913.12,331.24 ZM 1142.39 240.94 C1143.27,235.58 1145.52,230.69 1149.08,226.65 C1145.59,230.61 1143.30,235.73 1142.39,240.94 ZM 1166.77 324.52 C1167.83,323.65 1168.35,323.00 1168.53,322.27 C1168.55,322.68 1168.52,322.96 1168.43,323.11 C1168.31,323.30 1167.69,323.82 1166.77,324.52 ZM 1090.05 423.90 C1088.54,426.34 1086.62,428.81 1084.05,431.78 C1086.20,429.29 1088.45,426.31 1090.05,423.90 ZM 1024.20 371.24 C1022.28,372.38 1020.55,372.93 1018.83,372.90 C1020.32,372.89 1021.86,372.42 1023.68,371.51 C1023.86,371.42 1024.03,371.33 1024.20,371.24 ZM 1154.41 332.41 C1154.86,332.42 1155.44,332.22 1156.28,331.76 C1155.92,331.98 1155.59,332.18 1155.29,332.36 C1155.04,332.51 1154.73,332.52 1154.41,332.41 ZM 1136.75 238.55 C1137.07,235.74 1137.88,234.12 1139.84,230.73 C1141.10,228.53 1142.83,226.35 1144.62,224.54 C1142.83,226.36 1141.11,228.53 1139.84,230.73 C1137.91,234.08 1137.09,235.77 1136.75,238.55 ZM 992.45 436.63 C1000.78,437.21 1012.28,437.93 1022.50,438.51 C1036.69,439.32 1049.44,440.13 1051.75,440.35 C1049.44,440.13 1036.69,439.33 1022.50,438.52 C1012.17,437.93 1000.64,437.20 992.45,436.63 ZM 1152.65 330.78 C1151.78,329.41 1148.95,323.05 1146.30,316.78 C1148.95,323.04 1151.78,329.39 1152.65,330.78 ZM 1094.77 412.29 C1094.31,414.06 1093.83,415.65 1093.31,417.12 C1093.80,415.64 1094.30,413.98 1094.77,412.29 Z" fill="rgb(72,69,58)"/>
<path d="M 1425.55 678.70 C1413.87,680.09 1343.40,680.27 755.50,680.38 C394.15,680.44 92.43,680.21 85.00,679.87 C57.45,678.57 47.56,675.14 36.16,662.87 C32.77,659.23 30.00,655.97 30.00,655.63 C30.00,655.28 28.61,651.97 26.92,648.25 L 22.93 639.50 C22.42,638.40 21.22,635.47 20.26,633.00 C18.60,628.75 18.48,612.64 18.20,345.00 C17.97,138.10 18.20,59.54 19.02,54.24 C21.07,41.05 26.35,30.76 35.75,21.65 C45.46,12.23 56.66,7.54 73.21,5.98 C81.11,5.23 286.34,5.01 757.50,5.22 C1405.38,5.52 1430.72,5.60 1436.50,7.35 C1445.92,10.21 1455.45,15.72 1461.73,21.93 C1464.90,25.07 1467.95,28.28 1468.51,29.07 C1471.77,33.69 1473.41,36.85 1475.62,42.72 L 1478.09 49.28 L 1478.10 338.92 C1478.10,498.23 1477.81,629.45 1477.46,630.53 C1477.11,631.61 1476.42,633.40 1475.93,634.50 C1473.88,639.12 1472.73,642.64 1472.59,644.73 C1472.50,645.96 1471.74,647.53 1470.89,648.23 C1470.04,648.93 1468.76,651.36 1468.05,653.64 C1465.85,660.68 1449.94,674.29 1441.40,676.44 C1439.86,676.82 1432.73,677.84 1425.55,678.70 ZM 1211.36 501.50 C1229.91,498.26 1241.25,491.89 1255.88,476.49 C1263.31,468.67 1269.05,460.55 1271.68,454.16 C1272.51,452.15 1273.76,449.15 1274.45,447.50 C1280.34,433.42 1281.42,408.85 1276.87,392.26 C1272.31,375.64 1265.67,364.56 1251.83,350.52 C1246.42,345.03 1242.00,340.19 1242.00,339.77 C1242.00,339.35 1244.87,339.00 1248.38,339.00 C1252.75,339.00 1255.14,338.54 1255.97,337.54 C1256.98,336.32 1256.04,335.34 1250.34,331.65 C1239.11,324.39 1229.48,320.19 1220.00,318.43 C1218.07,318.08 1209.66,317.58 1201.30,317.32 C1186.74,316.88 1186.06,316.77 1185.41,314.68 C1185.04,313.48 1183.95,310.70 1182.99,308.50 C1179.14,299.67 1171.20,280.36 1170.53,278.16 C1170.02,276.51 1170.38,275.20 1171.78,273.66 C1175.65,269.40 1179.15,263.13 1180.49,258.04 C1182.49,250.44 1184.40,248.00 1188.32,248.00 C1191.74,248.00 1194.00,246.53 1194.00,244.30 C1194.00,242.13 1190.15,239.00 1187.48,239.00 C1185.29,239.00 1184.37,237.77 1180.34,229.43 C1172.95,214.13 1165.31,207.69 1151.22,204.83 C1143.39,203.25 1142.01,203.23 1134.68,204.62 C1126.53,206.17 1118.79,210.13 1114.50,214.96 C1111.87,217.92 1107.73,220.00 1104.45,220.00 C1101.78,220.00 1095.78,214.46 1085.65,202.66 C1080.56,196.72 1077.42,195.00 1071.65,195.00 C1068.22,195.00 1066.01,194.20 1062.00,191.50 C1059.14,189.57 1056.54,188.00 1056.23,188.00 C1055.91,188.00 1054.78,188.79 1053.72,189.75 C1051.99,191.31 1049.29,191.50 1029.14,191.50 L 1006.50 191.50 L 1006.20 196.20 C1005.81,202.25 1008.22,205.00 1013.92,205.00 C1020.09,205.00 1020.97,205.62 1019.67,209.05 C1017.93,213.68 1019.51,214.47 1027.67,213.04 C1031.43,212.38 1041.93,211.44 1051.00,210.95 C1060.07,210.46 1069.36,209.77 1071.64,209.41 L 1071.83 209.38 C1072.80,209.23 1073.57,209.11 1074.31,209.18 C1077.03,209.42 1079.53,212.11 1091.30,224.61 C1100.58,234.45 1101.01,235.76 1096.43,240.06 C1094.16,242.20 1093.73,242.25 1087.08,241.15 C1074.47,239.07 1058.95,240.08 1049.00,243.64 C1019.16,254.30 994.43,277.36 987.39,301.06 C985.67,306.84 983.82,308.69 981.97,306.46 C980.67,304.90 972.95,301.00 971.16,301.00 C970.64,301.00 967.21,300.07 963.55,298.94 C957.98,297.22 955.70,295.76 949.69,290.11 C945.74,286.38 941.77,283.07 940.88,282.75 C938.71,281.96 907.78,286.19 903.00,287.92 C901.62,288.42 898.97,289.10 897.10,289.42 C891.56,290.38 891.00,291.38 891.00,300.41 L 891.00 308.58 L 879.86 314.54 C873.74,317.82 866.87,321.96 864.61,323.74 C859.74,327.58 859.58,327.60 854.57,324.91 C848.90,321.87 841.10,321.26 838.31,323.64 C832.98,328.17 836.83,337.99 844.49,339.43 C846.42,339.79 848.00,340.45 848.00,340.88 C848.00,341.32 845.91,345.86 843.36,350.96 C839.61,358.46 838.69,361.32 838.61,365.81 C838.51,371.11 838.66,371.48 842.00,373.64 C845.92,376.19 847.77,377.16 848.40,378.64 C848.93,379.89 848.59,381.52 847.90,384.79 C847.76,385.42 847.62,386.12 847.46,386.89 C846.14,393.42 845.87,398.61 846.25,410.39 C846.67,423.51 847.10,426.55 849.49,433.50 C852.80,443.11 854.09,445.73 859.26,453.37 C866.05,463.39 872.27,468.70 884.31,474.75 C890.90,478.06 909.63,479.13 918.02,476.67 C927.16,474.00 938.03,465.98 946.21,455.88 L 953.39 447.00 L 963.09 447.00 C968.43,447.00 981.27,447.67 991.64,448.48 C1042.34,452.48 1066.28,452.92 1076.29,450.06 C1084.67,447.66 1088.04,445.60 1094.80,438.72 C1100.68,432.75 1101.12,431.50 1106.39,406.00 C1109.36,391.67 1110.61,385.95 1115.04,366.50 C1116.79,358.80 1118.62,350.70 1119.11,348.50 C1119.60,346.30 1120.70,341.58 1121.56,338.00 C1122.42,334.42 1123.67,329.02 1124.35,326.00 C1125.58,320.52 1127.46,318.92 1129.06,322.00 C1130.48,324.75 1133.00,330.79 1133.00,331.46 C1133.00,331.82 1133.82,334.00 1134.82,336.30 C1140.83,350.13 1140.86,350.42 1136.80,354.74 C1133.22,358.55 1126.80,369.34 1123.19,377.60 C1117.88,389.74 1116.89,395.09 1116.34,414.50 L 1115.83 432.50 L 1119.15 434.00 C1122.08,435.32 1122.73,436.35 1124.49,442.50 C1133.45,473.72 1161.49,498.81 1191.00,502.01 C1201.19,503.12 1202.22,503.09 1211.36,501.50 ZM 419.65 377.95 C420.38,377.22 421.50,377.27 423.35,378.11 C425.32,379.01 426.62,379.04 428.42,378.22 C430.18,377.42 431.64,377.42 433.73,378.20 C436.10,379.10 437.12,378.97 439.40,377.47 C442.68,375.32 444.00,372.32 444.00,367.00 C444.00,363.16 443.97,363.13 440.64,363.67 C436.57,364.33 433.50,361.58 431.97,355.90 C430.87,351.80 431.06,239.50 432.16,242.00 C432.53,242.82 435.16,251.38 438.00,261.00 C448.69,297.16 451.20,305.63 452.65,310.50 C453.47,313.25 454.52,317.00 454.98,318.83 C455.45,320.67 456.27,323.37 456.82,324.83 C457.71,327.26 460.55,336.51 466.21,355.50 C469.90,367.86 471.00,371.10 472.53,374.06 C474.02,376.94 477.05,378.39 480.64,377.92 C481.66,377.79 483.70,378.02 485.18,378.43 C486.65,378.84 488.62,378.75 489.56,378.23 C490.64,377.62 492.22,377.62 493.88,378.23 C499.73,380.38 505.92,373.74 505.98,365.25 C506.00,361.88 505.18,361.22 503.30,363.10 C501.60,364.80 498.06,363.15 495.93,359.66 C494.13,356.70 494.01,354.31 494.00,322.71 C494.00,291.32 494.14,288.65 495.93,285.14 C496.99,283.07 498.56,280.78 499.42,280.07 C500.82,278.91 500.72,278.46 498.52,275.84 C494.23,270.74 493.85,267.37 494.19,236.82 C494.49,209.31 494.59,208.03 496.64,205.32 C498.46,202.93 499.42,202.53 503.01,202.70 L 507.25 202.90 L 506.77 197.92 C506.45,194.67 505.53,192.13 504.11,190.62 C502.04,188.41 501.28,188.30 487.86,188.30 L 473.79 188.30 L 471.90 191.40 C470.84,193.13 470.01,196.35 470.00,198.69 L 470.00 202.87 L 473.36 202.33 C476.00,201.90 477.17,202.27 478.82,204.04 C482.41,207.89 483.14,215.10 482.81,243.20 L 482.50 269.50 L 479.72 274.42 C478.20,277.13 477.35,279.61 477.83,279.92 C478.32,280.24 479.57,282.08 480.61,284.00 C482.24,287.02 482.55,290.19 482.83,307.00 C483.01,317.72 482.94,326.27 482.67,326.00 C482.40,325.72 479.86,317.17 477.02,307.00 C474.18,296.83 470.78,284.90 469.47,280.50 C466.18,269.48 462.00,255.16 457.07,238.00 C454.78,230.02 452.30,221.70 451.57,219.50 C450.83,217.30 449.21,211.68 447.96,207.00 C445.41,197.44 442.73,190.82 440.80,189.32 C440.08,188.76 433.60,188.28 426.33,188.25 C413.74,188.20 413.06,188.30 410.94,190.57 C409.48,192.12 408.55,194.63 408.24,197.84 L 407.77 202.75 L 411.50 202.62 C414.50,202.52 415.65,203.05 417.36,205.32 C419.41,208.03 419.51,209.32 419.79,236.55 C420.11,266.87 419.68,270.74 415.52,275.21 C412.61,278.33 412.38,279.55 414.54,280.38 C415.39,280.70 416.96,282.89 418.02,285.23 C419.80,289.17 419.96,292.02 419.98,321.60 C420.00,354.17 419.61,358.32 416.12,362.34 C414.93,363.71 413.66,364.04 411.14,363.64 L 407.76 363.09 L 408.23 368.71 C408.60,373.26 409.21,374.78 411.40,376.67 C414.27,379.13 417.90,379.70 419.65,377.95 ZM 711.85 378.11 C712.64,377.62 714.40,377.70 716.02,378.32 C717.96,379.05 719.55,379.06 721.13,378.36 C722.69,377.66 724.29,377.66 726.16,378.36 C731.55,380.40 737.00,374.52 737.00,366.66 C737.00,363.08 735.67,361.11 734.51,362.98 C733.35,364.86 729.17,364.04 727.22,361.55 C723.12,356.35 722.92,352.95 723.22,295.00 L 723.50 239.50 L 726.67 249.50 C728.42,255.00 730.61,262.20 731.53,265.50 C733.11,271.12 735.60,279.38 739.97,293.50 C740.99,296.80 742.57,302.20 743.47,305.50 C744.38,308.80 746.47,316.00 748.13,321.50 C753.22,338.41 754.97,344.34 756.12,348.50 C756.73,350.70 757.56,353.40 757.98,354.50 C758.39,355.60 759.91,360.36 761.37,365.08 C764.51,375.26 766.89,378.00 772.56,377.95 C774.72,377.93 779.65,378.10 783.50,378.33 C788.50,378.63 791.17,378.34 792.83,377.30 C795.67,375.53 798.00,370.27 798.00,365.62 C798.00,362.19 797.99,362.18 794.91,363.34 C792.10,364.40 791.63,364.27 789.55,361.85 C785.44,357.08 784.62,348.55 785.31,317.75 C785.86,293.03 786.15,289.44 787.92,285.46 C789.01,282.99 790.60,280.71 791.45,280.38 C793.56,279.57 793.40,277.67 791.04,275.53 C789.96,274.55 788.27,271.67 787.29,269.13 C785.74,265.12 785.50,261.09 785.50,239.00 C785.50,219.95 785.85,212.49 786.88,209.50 C788.93,203.53 790.80,201.84 794.95,202.20 C798.20,202.47 798.53,202.26 798.83,199.63 C799.23,196.09 798.46,193.12 796.45,190.50 C795.05,188.68 793.65,188.49 780.91,188.38 L 766.91 188.26 L 764.45 191.47 C762.78,193.67 762.00,195.98 762.00,198.75 L 762.00 202.81 L 765.76 202.31 C773.65,201.25 775.00,206.96 775.00,241.43 C775.00,268.13 774.69,270.31 770.11,276.14 C768.19,278.57 768.16,278.89 769.67,280.14 C770.58,280.89 772.14,283.30 773.14,285.50 C774.68,288.90 774.95,292.22 774.95,307.50 C774.94,318.47 774.59,324.91 774.05,323.98 C773.56,323.15 772.20,318.65 771.03,313.98 C769.86,309.32 768.00,302.35 766.89,298.50 C762.47,283.10 759.81,274.04 756.79,264.08 C756.22,262.21 754.48,256.13 752.94,250.58 C751.39,245.04 748.69,235.77 746.94,230.00 C745.18,224.23 742.93,216.57 741.93,213.00 C735.49,189.96 734.56,188.00 730.04,188.00 C728.43,188.00 726.83,188.47 726.47,189.05 C726.06,189.71 725.40,189.75 724.66,189.16 C724.02,188.64 719.27,188.28 714.11,188.36 C705.20,188.49 704.61,188.64 702.75,191.14 C701.67,192.59 700.54,195.88 700.25,198.46 L 699.72 203.14 L 703.12 202.50 C705.97,201.97 706.93,202.30 709.01,204.51 L 711.50 207.16 L 711.82 236.33 C712.16,267.48 711.80,270.70 707.43,275.91 C704.91,278.90 704.91,278.91 706.90,280.90 C712.06,286.06 712.12,286.58 711.80,323.47 C711.51,356.84 711.44,357.94 709.36,360.68 C707.62,362.97 706.53,363.46 703.61,363.28 C700.03,363.06 700.00,363.09 700.00,367.08 C700.00,375.57 706.43,381.55 711.85,378.11 ZM 687.98 379.02 C689.52,377.38 691.03,374.56 691.35,372.77 C692.70,365.07 693.10,357.33 692.26,355.12 C691.65,353.51 691.83,351.30 692.83,348.29 C694.32,343.75 694.06,340.42 690.95,324.67 C690.43,322.02 690.00,317.23 690.00,314.03 C690.00,306.76 687.76,303.34 683.67,304.37 C681.30,304.96 681.00,305.52 680.99,309.27 C680.97,321.20 676.79,344.43 673.36,351.65 C671.19,356.22 665.76,360.77 661.53,361.56 C657.14,362.38 651.21,360.16 648.64,356.72 C645.59,352.64 645.09,346.99 645.04,316.25 L 645.00 287.00 L 651.01 287.00 C656.73,287.00 657.13,287.16 659.01,290.25 C661.19,293.83 661.73,302.94 660.03,307.42 C659.22,309.54 659.41,310.15 661.16,311.08 C664.06,312.64 668.08,309.53 669.83,304.40 C672.85,295.48 672.70,258.19 669.61,252.21 C667.59,248.31 665.54,246.79 662.81,247.17 C660.60,247.49 660.51,247.83 660.80,255.00 C661.26,266.49 657.84,270.42 648.00,269.69 L 645.50 269.50 L 645.23 245.00 C645.08,231.46 645.38,219.38 645.90,218.00 C646.42,216.63 647.09,214.35 647.39,212.93 C648.53,207.64 653.56,204.00 659.71,204.00 C664.34,204.00 667.28,205.90 670.48,210.97 C674.84,217.87 677.17,226.72 677.85,239.00 C678.50,250.48 678.50,250.50 681.12,250.80 C687.43,251.54 688.84,246.36 689.63,219.50 C690.16,201.53 690.01,197.68 688.58,192.83 C686.64,186.26 685.19,184.73 681.32,185.18 C679.08,185.43 678.40,186.11 678.00,188.49 C677.30,192.53 675.16,192.72 667.45,189.44 C661.81,187.04 660.17,186.78 654.08,187.29 C650.27,187.61 645.69,188.63 643.90,189.55 C640.91,191.10 640.45,191.11 637.92,189.61 C634.74,187.73 627.92,187.48 626.23,189.17 C625.33,190.07 624.45,190.07 622.48,189.17 C618.30,187.27 613.59,187.72 611.37,190.25 C608.87,193.09 607.00,197.42 607.00,200.38 C607.00,203.45 607.85,204.11 610.03,202.75 C612.56,201.17 616.68,203.17 618.27,206.74 C619.15,208.72 619.50,217.84 619.50,239.09 L 619.50 268.68 L 616.24 273.93 L 612.97 279.18 L 615.40 282.06 C616.73,283.64 618.31,287.23 618.91,290.02 C620.37,296.81 620.35,350.17 618.90,355.50 C617.30,361.34 615.21,363.30 611.26,362.66 L 608.00 362.13 L 608.00 366.72 C608.00,370.12 608.67,372.19 610.59,374.71 C613.15,378.07 613.26,378.10 620.84,378.01 C625.05,377.96 630.00,377.97 631.83,378.02 C633.65,378.08 636.24,377.42 637.57,376.55 C639.74,375.12 640.34,375.12 643.63,376.49 C652.38,380.15 665.49,379.19 672.57,374.39 C677.33,371.16 679.32,371.60 680.04,376.04 C681.16,382.90 683.53,383.79 687.98,379.02 ZM 394.69 380.25 C398.20,377.17 399.03,374.29 399.57,363.28 C399.85,357.35 400.33,350.02 400.63,347.00 C400.92,343.98 400.62,337.90 399.97,333.50 C399.31,329.10 398.48,321.67 398.12,317.00 C397.34,306.75 395.96,303.75 392.18,304.19 C389.89,304.45 389.47,305.01 389.28,308.00 C387.96,328.99 384.05,347.66 379.59,354.28 C373.36,363.52 360.21,363.77 355.27,354.74 C353.70,351.87 353.47,347.86 353.20,319.20 L 352.90 286.90 L 358.66 287.20 C364.00,287.48 364.61,287.76 366.80,291.00 C368.84,294.01 369.10,295.34 368.66,300.50 C368.38,303.80 368.01,307.34 367.83,308.36 C367.65,309.39 368.27,310.72 369.21,311.33 C372.03,313.16 376.20,309.25 378.08,303.01 C379.70,297.64 379.96,283.70 378.85,262.23 C378.29,251.40 376.31,247.50 371.39,247.50 L 368.50 247.50 L 368.85 254.61 C369.22,262.15 367.61,267.17 364.46,268.38 C363.56,268.72 360.62,269.00 357.92,269.00 L 353.00 269.00 L 353.00 245.67 C353.00,218.35 353.87,212.34 358.53,207.40 C361.30,204.46 362.38,204.00 366.46,204.00 C372.55,204.00 376.26,206.61 379.62,213.24 C383.84,221.56 385.12,226.90 385.83,239.00 C386.49,250.38 386.53,250.50 389.05,250.80 C395.51,251.55 397.15,243.21 396.76,211.73 C396.52,192.60 396.35,190.94 394.40,188.32 C393.05,186.50 391.21,185.39 389.22,185.19 C386.39,184.91 386.11,185.15 385.82,188.18 C385.40,192.56 383.59,192.77 375.27,189.45 C369.32,187.06 367.67,186.82 361.23,187.36 C357.22,187.70 352.55,188.70 350.85,189.58 C347.99,191.06 347.51,191.05 344.56,189.46 C342.27,188.23 340.24,187.92 337.43,188.39 C332.68,189.18 331.64,189.18 326.49,188.43 C321.42,187.68 317.92,190.17 316.05,195.85 C314.25,201.30 315.08,203.13 318.99,202.35 C321.11,201.93 322.61,202.24 323.87,203.38 C327.49,206.66 328.25,214.08 327.78,241.55 C327.32,268.52 326.90,271.33 322.72,275.79 C320.93,277.70 320.78,278.38 321.81,279.79 C322.49,280.73 324.05,283.52 325.27,286.00 C327.44,290.37 327.50,291.42 327.50,323.00 C327.50,354.03 327.41,355.66 325.44,359.00 C323.65,362.03 322.85,362.51 319.44,362.56 C316.16,362.61 315.45,362.99 315.18,364.83 C314.70,368.09 316.73,373.40 319.41,375.92 C321.67,378.04 322.51,378.18 331.50,377.94 C333.15,377.89 335.85,378.14 337.50,378.48 C339.51,378.90 341.70,378.48 344.12,377.22 C347.67,375.38 347.87,375.38 353.62,377.24 C362.37,380.06 371.00,379.35 378.99,375.17 C382.43,373.36 385.87,372.12 386.63,372.41 C387.43,372.72 388.00,374.39 388.00,376.42 C388.00,378.68 388.61,380.26 389.75,380.92 C392.12,382.30 392.40,382.26 394.69,380.25 ZM 282.29 375.65 C288.05,372.43 288.92,372.20 290.07,373.58 C292.14,376.07 296.63,378.00 300.38,378.00 C305.25,378.00 308.00,374.34 308.00,367.87 C308.00,363.75 307.71,363.00 306.10,363.00 C302.89,363.00 301.72,357.61 301.24,340.66 C300.51,315.17 302.18,307.19 307.93,308.69 C309.84,309.19 310.00,308.81 310.00,303.75 C310.00,295.17 304.86,290.58 298.12,293.15 C296.46,293.78 294.71,293.71 292.87,292.95 C290.82,292.10 289.25,292.09 286.68,292.94 C284.09,293.80 282.61,293.78 280.63,292.88 C274.99,290.31 269.01,296.66 269.00,305.23 C269.00,309.87 269.05,309.94 271.81,309.39 C277.03,308.34 277.50,310.16 277.50,331.40 C277.50,349.30 277.36,350.76 275.25,354.72 C271.72,361.32 266.65,362.87 261.61,358.91 C254.55,353.36 252.66,342.84 253.17,311.98 C253.56,288.50 253.96,286.24 258.73,280.80 C260.05,279.29 259.98,278.77 258.00,276.00 C254.28,270.77 253.02,263.69 253.01,247.82 C252.99,222.73 255.84,210.68 263.25,204.44 C266.03,202.10 267.06,201.84 271.90,202.24 C276.62,202.63 277.77,203.16 280.15,206.02 C287.83,215.21 288.02,233.00 280.44,233.00 C278.29,233.00 278.00,233.44 278.00,236.75 C278.01,240.88 280.83,246.30 283.80,247.89 C285.41,248.75 285.64,249.72 285.23,253.94 C284.84,258.02 285.07,259.09 286.44,259.61 C289.40,260.75 292.85,258.23 295.50,253.00 C296.91,250.21 298.40,248.13 298.80,248.37 C299.19,248.62 300.95,248.22 302.70,247.49 C306.91,245.71 309.04,239.56 306.71,235.89 C305.88,234.58 304.65,230.12 303.99,226.00 C301.69,211.74 297.80,202.79 290.60,195.17 C284.56,188.78 279.94,186.73 270.41,186.21 C260.59,185.67 256.11,187.34 248.23,194.46 C238.61,203.16 230.98,219.38 227.53,238.50 C224.35,256.08 224.00,258.37 224.00,261.43 C224.00,265.28 220.66,274.62 218.38,277.14 C216.76,278.92 216.79,279.14 218.83,281.32 C221.69,284.37 223.65,291.58 224.44,302.00 C225.33,313.77 228.85,333.84 231.01,339.50 C231.43,340.60 232.35,343.52 233.07,346.00 C235.14,353.19 239.89,362.08 244.67,367.72 C252.81,377.30 258.84,380.24 269.15,379.66 C274.52,379.35 277.06,378.58 282.29,375.65 ZM 546.82 377.59 C549.13,376.40 549.91,376.39 552.02,377.56 C555.23,379.33 558.43,379.35 561.82,377.59 C564.13,376.40 564.91,376.39 567.02,377.56 C573.09,380.92 579.03,377.93 580.87,370.58 C582.64,363.56 582.45,362.74 579.16,363.46 C577.19,363.90 575.64,363.53 574.05,362.25 C569.53,358.58 569.03,354.65 569.02,322.37 C569.00,289.67 569.29,287.57 574.74,281.80 L 577.29 279.09 L 574.19 275.56 C572.48,273.62 570.61,270.26 570.03,268.10 C569.36,265.64 569.07,252.87 569.24,233.84 L 569.50 203.50 L 571.80 203.17 C573.14,202.98 575.50,203.91 577.41,205.36 C585.13,211.25 589.32,227.61 588.79,249.79 C588.48,262.81 588.98,264.34 593.18,263.24 C595.83,262.55 597.77,259.34 599.40,252.90 C601.06,246.40 601.53,195.70 599.99,189.98 C598.37,183.93 591.00,181.78 591.00,187.35 C591.00,191.59 588.84,192.30 583.38,189.85 C577.71,187.30 567.13,186.82 564.52,188.98 C563.31,189.99 562.63,190.03 561.76,189.16 C560.42,187.82 554.13,187.63 552.17,188.87 C551.40,189.36 549.11,189.11 546.67,188.26 C541.62,186.51 535.33,187.18 529.27,190.11 C524.20,192.56 522.00,191.59 522.00,186.88 C522.00,184.53 521.57,184.00 519.67,184.00 C518.40,184.00 516.26,185.16 514.92,186.58 C512.56,189.09 512.49,189.63 512.26,207.33 C511.92,232.44 513.30,253.73 515.53,258.09 C517.65,262.23 518.67,262.96 522.31,262.98 L 525.12 263.00 L 524.44 251.25 C523.23,230.26 529.13,208.61 537.20,204.41 C540.54,202.66 543.65,202.60 544.20,204.25 C544.43,204.94 544.59,219.23 544.56,236.00 C544.50,268.87 544.20,270.97 538.77,276.74 L 536.64 279.01 L 539.18 281.76 C543.72,286.64 544.28,289.99 544.76,314.90 C545.55,355.40 544.00,363.64 535.68,363.39 C532.14,363.28 532.00,363.40 532.00,366.69 C532.00,373.05 536.72,379.00 541.77,379.00 C543.05,379.00 545.32,378.37 546.82,377.59 ZM 1052.00 440.38 C1051.98,440.38 1051.95,440.37 1051.93,440.37 C1051.88,440.36 1051.82,440.36 1051.75,440.35 C1051.65,440.34 1051.53,440.33 1051.39,440.32 C1048.33,440.06 1036.07,439.29 1022.50,438.51 C1012.28,437.93 1000.78,437.21 992.45,436.63 C988.87,436.38 985.93,436.17 984.00,436.00 C977.67,435.47 962.83,434.57 951.00,434.01 C939.17,433.45 924.10,432.54 917.50,432.00 C914.36,431.74 910.38,431.45 906.41,431.19 C902.07,430.77 899.00,430.38 897.50,430.04 C895.30,429.53 886.64,428.79 878.25,428.41 C868.90,427.98 864.23,427.49 863.22,426.82 C863.07,426.72 863.00,426.62 863.00,426.52 C863.00,424.92 866.61,423.28 871.66,422.58 C876.37,421.93 931.01,423.45 956.00,424.93 C984.44,426.62 1018.71,428.00 1040.00,428.33 L 1060.50 428.64 L 1065.50 423.51 C1068.25,420.69 1071.02,417.29 1071.65,415.94 C1075.09,408.64 1077.00,403.86 1077.00,402.56 C1077.00,401.75 1077.41,400.06 1077.91,398.80 C1078.75,396.67 1079.66,392.91 1084.90,370.00 C1085.97,365.33 1087.99,356.55 1089.40,350.50 C1090.81,344.45 1092.65,336.12 1093.49,332.00 C1096.16,318.86 1098.28,317.25 1104.25,323.85 L 1107.72 327.70 L 1106.46 333.60 C1105.77,336.84 1104.03,344.67 1102.59,351.00 C1101.15,357.33 1098.65,368.58 1097.04,376.00 C1094.08,389.67 1091.76,399.54 1089.98,406.12 C1089.44,408.10 1089.00,410.50 1089.00,411.44 C1089.00,413.95 1083.66,421.27 1077.31,427.47 C1072.37,432.30 1057.66,441.26 1055.35,440.85 C1054.88,440.77 1053.38,440.56 1052.00,440.38 ZM 995.42 300.65 C994.36,297.90 999.20,288.07 1005.02,281.12 C1018.62,264.89 1044.82,249.06 1058.15,249.01 C1062.21,249.00 1063.18,249.44 1065.84,252.47 C1075.50,263.47 1071.09,283.54 1056.85,293.34 C1051.98,296.69 1050.21,297.30 1042.89,298.09 C1038.27,298.60 1030.68,299.45 1026.00,299.98 C1021.33,300.52 1012.67,301.26 1006.77,301.62 C997.42,302.19 995.96,302.06 995.42,300.65 ZM 532.50 504.70 C535.56,502.97 537.32,500.83 540.00,495.57 L 543.50 488.70 L 543.50 459.78 C543.50,433.76 543.33,430.70 541.79,429.31 C539.37,427.12 535.21,428.40 533.76,431.78 C533.12,433.27 532.48,434.67 532.34,434.87 C532.20,435.08 530.68,434.07 528.97,432.62 C522.77,427.41 516.73,428.31 510.18,435.42 C506.88,439.00 505.90,441.08 504.46,447.51 C500.22,466.59 506.92,482.00 519.44,482.00 C523.55,482.00 524.68,481.52 527.73,478.47 C529.68,476.52 531.39,475.06 531.55,475.22 C531.70,475.37 531.46,478.82 531.02,482.87 C529.84,493.57 526.41,497.32 519.40,495.57 C517.91,495.19 516.47,493.66 515.56,491.48 C514.31,488.49 513.63,488.00 510.75,488.00 C506.43,488.00 505.00,489.52 505.00,494.12 C505.00,498.48 508.23,502.88 513.22,505.34 C518.19,507.79 527.60,507.48 532.50,504.70 ZM 259.30 483.75 C260.83,482.62 260.90,480.95 260.07,466.00 C259.47,455.10 259.53,442.81 260.26,429.78 C261.30,411.18 261.26,409.94 259.52,408.03 C257.25,405.51 253.92,405.43 250.96,407.83 C249.06,409.37 248.58,411.06 247.92,418.58 C247.49,423.49 247.11,428.98 247.07,430.78 L 247.00 434.06 L 243.92 431.78 C241.77,430.20 239.45,429.50 236.30,429.50 C232.18,429.50 231.40,429.92 227.55,434.17 C221.78,440.54 219.51,447.84 219.66,459.50 C219.87,475.55 225.57,483.99 236.21,484.00 C240.30,484.00 241.44,483.50 244.95,480.16 C249.12,476.20 250.00,476.02 250.00,479.17 C250.00,481.52 253.47,485.00 255.81,485.00 C256.80,485.00 258.37,484.44 259.30,483.75 ZM 586.17 482.35 C587.74,480.93 588.00,479.07 588.00,469.36 C588.00,449.83 592.41,437.55 597.56,442.71 C599.10,444.24 599.20,446.17 598.56,461.79 C597.92,477.48 598.02,479.36 599.58,481.09 C601.35,483.05 605.51,483.60 607.77,482.16 C609.78,480.89 611.00,475.13 611.00,466.88 C611.00,458.13 613.54,445.33 615.79,442.75 C617.86,440.37 620.69,440.55 622.08,443.14 C622.94,444.76 622.90,449.31 621.92,461.76 C620.40,481.06 620.92,483.28 627.12,483.80 C629.17,483.97 631.11,483.55 631.71,482.80 C634.62,479.17 636.10,441.02 633.52,436.04 C629.00,427.30 618.23,426.64 612.10,434.72 C610.12,437.33 609.93,437.39 608.89,435.64 C606.36,431.40 604.03,430.00 599.50,430.00 C595.77,430.00 594.35,430.59 591.13,433.50 C586.57,437.62 586.00,437.75 586.00,434.72 C586.00,428.94 580.11,426.01 576.51,429.99 C574.83,431.85 574.75,433.68 575.42,456.24 C576.02,476.25 576.42,480.81 577.73,482.25 C579.72,484.46 583.79,484.50 586.17,482.35 ZM 1181.33 469.60 C1174.76,467.16 1167.18,462.65 1162.89,458.63 C1145.84,442.64 1140.13,414.78 1149.55,393.48 C1151.74,388.53 1152.22,388.05 1153.97,388.98 C1157.61,390.93 1158.53,396.98 1156.68,406.77 C1153.60,423.10 1157.74,439.06 1167.96,450.21 C1178.59,461.81 1186.32,465.52 1199.55,465.35 C1205.03,465.29 1208.66,464.71 1210.91,463.55 C1214.12,461.88 1214.16,461.80 1212.19,460.42 C1211.01,459.59 1209.74,457.02 1209.15,454.26 L 1208.14 449.52 L 1215.20 442.51 C1219.09,438.65 1223.13,433.59 1224.18,431.25 C1226.04,427.12 1226.23,427.00 1230.80,427.01 C1233.38,427.01 1237.86,427.30 1240.75,427.65 C1245.33,428.20 1246.00,428.56 1246.00,430.52 C1246.00,436.68 1237.26,452.64 1230.35,459.09 C1225.17,463.92 1221.68,466.13 1214.18,469.32 C1208.68,471.66 1206.56,471.99 1197.68,471.95 C1189.62,471.91 1186.22,471.42 1181.33,469.60 ZM 670.51 480.99 C673.30,479.27 675.06,476.96 677.32,472.08 C682.29,461.33 681.59,445.70 675.74,436.90 C673.08,432.89 665.94,429.00 661.25,429.00 C654.80,429.00 646.59,435.03 644.22,441.50 C640.79,450.91 640.56,461.61 643.62,470.32 C647.92,482.59 660.11,487.42 670.51,480.99 ZM 744.50 482.12 C752.78,478.32 756.04,472.01 756.71,458.50 C757.13,449.99 756.89,447.68 755.10,442.95 C751.22,432.68 742.42,427.41 733.30,429.90 C725.72,431.97 722.43,436.07 718.96,447.72 C717.30,453.27 718.30,466.22 720.83,472.06 C725.20,482.14 735.21,486.39 744.50,482.12 ZM 361.77 482.45 C363.81,481.60 366.49,479.94 367.74,478.77 C369.98,476.67 370.04,476.67 371.48,478.57 C372.28,479.63 372.95,480.78 372.97,481.13 C372.99,481.47 374.32,482.31 375.94,482.98 C378.19,483.91 379.70,483.92 382.36,483.05 C388.35,481.07 389.16,473.83 383.50,472.81 C381.60,472.46 381.52,471.78 381.81,459.69 C382.20,444.24 380.96,437.26 377.21,433.77 C372.94,429.79 370.11,428.75 363.54,428.75 C356.74,428.75 350.25,431.37 347.57,435.21 C345.30,438.45 345.51,444.67 347.93,445.96 C351.44,447.84 353.77,447.08 357.00,443.00 C359.55,439.78 360.81,439.00 363.46,439.00 C367.68,439.00 369.21,440.90 368.81,445.67 C368.51,449.36 368.36,449.51 364.00,450.15 C355.39,451.41 348.31,455.57 345.50,461.00 C343.22,465.41 343.53,475.13 346.05,478.33 C350.22,483.64 355.57,485.04 361.77,482.45 ZM 293.22 482.96 C302.45,480.39 309.19,469.33 304.43,464.57 C302.54,462.68 299.46,462.53 298.07,464.25 C292.55,471.12 290.52,473.00 288.62,473.00 C285.53,473.00 282.49,470.59 280.98,466.95 C279.52,463.42 280.57,462.04 284.72,462.02 C289.01,461.99 297.65,457.33 300.61,453.44 C303.07,450.22 303.50,448.75 303.50,443.50 C303.50,435.85 300.38,431.03 294.22,429.19 C286.57,426.89 280.85,428.40 275.30,434.17 C269.47,440.24 267.55,446.12 267.52,458.00 C267.50,466.87 267.83,469.12 269.65,472.50 C274.67,481.83 283.37,485.69 293.22,482.96 ZM 493.84 482.69 C495.20,481.06 497.00,462.53 497.00,450.22 C497.00,436.75 493.99,430.95 486.19,429.41 C481.96,428.57 475.62,431.32 472.87,435.18 C470.35,438.72 469.00,438.77 469.00,435.33 C469.00,431.79 466.34,429.00 462.97,429.00 C457.89,429.00 457.74,429.92 458.52,455.72 C458.92,468.80 459.65,480.29 460.16,481.25 C461.25,483.34 468.19,483.70 469.76,481.75 C470.31,481.06 470.98,474.20 471.25,466.50 C471.77,451.39 473.63,443.97 477.55,441.38 C479.30,440.22 479.93,440.26 481.94,441.67 L 484.28 443.31 L 483.58 462.02 C482.95,478.60 483.06,480.92 484.51,482.37 C486.46,484.32 492.32,484.53 493.84,482.69 ZM 963.38 372.03 C955.22,369.13 954.15,368.28 952.96,363.73 C952.34,361.40 949.85,353.86 947.42,346.97 C944.99,340.08 943.00,333.97 943.00,333.40 C943.00,332.83 947.39,331.79 952.75,331.09 C958.11,330.39 964.97,329.44 968.00,328.98 C971.03,328.51 976.84,327.81 980.92,327.41 C987.10,326.80 988.25,326.91 987.80,328.09 C987.50,328.87 986.28,333.55 985.10,338.50 C983.91,343.45 982.28,349.69 981.47,352.36 C980.66,355.04 980.00,357.84 980.00,358.59 C980.00,361.65 971.59,374.06 969.60,373.93 C969.00,373.89 966.20,373.03 963.38,372.03 ZM 1004.50 315.28 C1001.97,314.66 998.89,311.98 999.53,310.94 C999.80,310.51 1003.05,309.87 1006.76,309.51 C1025.82,307.69 1042.19,305.84 1048.00,304.84 C1066.37,301.68 1077.24,287.87 1077.30,267.61 C1077.33,260.19 1076.93,257.72 1075.17,254.29 C1073.97,251.97 1073.00,249.84 1073.00,249.54 C1073.00,248.63 1079.72,248.94 1082.46,249.99 C1086.81,251.64 1089.17,258.73 1089.16,270.11 C1089.15,278.56 1088.76,280.70 1085.93,287.86 C1084.16,292.34 1082.33,296.00 1081.86,296.00 C1081.39,296.00 1081.00,296.63 1081.00,297.40 C1081.00,299.30 1071.12,308.20 1065.58,311.30 C1061.59,313.53 1059.21,313.93 1044.14,314.90 C1027.10,316.01 1008.21,316.19 1004.50,315.28 ZM 789.33 482.64 C796.56,479.61 800.41,471.31 797.99,463.96 C796.32,458.92 792.88,455.74 784.96,451.92 C777.04,448.10 775.00,446.36 775.00,443.40 C775.00,440.95 778.36,438.00 781.14,438.00 C782.07,438.00 784.26,439.80 786.00,442.00 C790.80,448.07 797.00,446.85 797.00,439.83 C797.00,432.54 788.53,427.25 778.50,428.29 C768.97,429.27 762.63,435.68 762.55,444.44 C762.48,451.63 765.12,454.89 774.73,459.45 C779.00,461.48 783.28,463.85 784.25,464.72 C786.78,467.02 786.44,470.66 783.51,472.59 C780.11,474.81 776.68,473.76 773.43,469.49 C771.37,466.79 770.04,466.00 767.58,466.00 C763.56,466.00 762.00,467.55 762.00,471.57 C762.00,475.20 764.94,479.38 769.41,482.11 C773.17,484.40 784.39,484.70 789.33,482.64 ZM 338.37 481.93 C340.09,480.57 341.00,478.89 341.00,477.05 C341.00,473.12 339.01,471.81 334.21,472.58 C330.81,473.13 330.02,472.91 329.10,471.18 C327.87,468.90 327.59,445.17 328.77,443.37 C329.17,442.75 331.52,441.91 334.00,441.51 C339.61,440.59 341.00,439.50 341.00,436.00 C341.00,432.39 339.41,431.21 334.05,430.82 L 329.64 430.50 L 329.89 423.66 C330.18,415.81 328.59,413.00 323.87,413.00 C319.87,413.00 317.61,416.92 317.00,424.91 C316.51,431.32 316.45,431.44 313.26,432.09 C309.01,432.95 307.00,434.71 307.00,437.55 C307.00,440.63 309.53,443.00 312.82,443.00 L 315.50 443.00 L 315.50 457.75 C315.51,474.77 316.00,477.27 320.16,481.15 C322.84,483.65 323.97,484.00 329.47,484.00 C334.29,484.00 336.34,483.52 338.37,481.93 ZM 713.55 481.55 C718.20,476.89 715.56,471.30 709.27,472.48 C703.48,473.56 703.00,472.42 703.02,457.63 C703.02,450.41 703.36,443.99 703.77,443.37 C704.17,442.75 706.42,441.92 708.77,441.53 C713.71,440.71 716.00,438.81 716.00,435.55 C716.00,432.39 714.24,431.19 709.05,430.82 L 704.64 430.50 L 704.89 423.66 C705.18,415.81 703.59,413.00 698.87,413.00 C694.93,413.00 692.77,416.75 692.07,424.82 L 691.50 431.44 L 687.56 432.54 C682.65,433.92 681.24,435.93 682.56,439.70 C683.35,441.95 684.23,442.56 687.07,442.80 L 690.60 443.10 L 690.55 458.80 C690.51,471.91 690.79,475.03 692.24,477.69 C694.95,482.65 697.64,484.00 704.77,484.00 C710.15,484.00 711.46,483.63 713.55,481.55 ZM 1019.50 292.50 C1028.87,291.78 1045.27,289.24 1048.35,288.03 C1051.29,286.87 1058.37,279.25 1060.36,275.10 C1062.56,270.53 1062.42,265.20 1060.01,261.25 C1058.38,258.57 1057.41,258.00 1054.50,258.00 C1052.56,258.00 1050.19,258.40 1049.24,258.88 C1048.28,259.36 1044.60,261.05 1041.05,262.63 C1031.27,266.98 1020.53,274.45 1011.30,283.31 C1004.50,289.84 1003.21,291.54 1004.18,292.72 C1004.95,293.65 1006.46,293.97 1008.44,293.63 C1010.12,293.35 1015.10,292.84 1019.50,292.50 ZM 863.02 397.52 C860.72,394.76 863.28,382.62 868.44,371.84 C872.26,363.86 880.84,354.71 887.63,351.39 C892.43,349.05 894.38,348.68 901.84,348.74 C914.18,348.83 920.79,352.21 928.74,362.51 C935.14,370.80 940.21,390.92 936.64,393.88 C936.56,393.95 936.48,394.02 936.41,394.08 C936.01,394.42 935.71,394.67 935.44,394.65 C934.65,394.61 933.97,392.49 931.21,384.50 C927.46,373.62 925.94,370.84 921.07,365.98 C915.74,360.64 911.54,359.01 903.12,359.01 C894.83,359.00 890.09,360.86 884.67,366.25 C879.14,371.76 873.57,382.82 872.46,390.50 C872.07,393.25 871.34,396.29 870.84,397.25 C869.72,399.41 864.73,399.58 863.02,397.52 ZM 425.55 482.54 C427.93,480.16 427.99,479.78 427.26,471.29 C426.25,459.59 426.31,437.33 427.40,422.42 C428.27,410.52 428.25,410.31 425.95,408.17 C422.20,404.68 418.11,405.96 416.09,411.26 C414.14,416.40 412.70,450.64 413.89,463.67 C414.50,470.37 415.00,476.80 415.00,477.97 C415.00,480.45 419.20,485.00 421.50,485.00 C422.38,485.00 424.20,483.89 425.55,482.54 ZM 848.71 366.69 C848.43,365.96 849.98,361.87 852.14,357.59 C862.24,337.62 875.29,326.39 894.24,321.37 C906.80,318.04 918.98,321.89 929.46,332.50 C930.42,333.47 931.34,334.48 932.23,335.54 L 932.24 335.54 C938.07,342.57 942.70,351.92 943.59,358.85 C944.23,363.75 944.12,364.17 942.39,363.85 C941.24,363.63 939.40,361.02 937.01,356.23 C935.15,351.71 930.98,345.05 927.10,340.80 C922.76,336.06 918.33,332.97 913.12,331.24 C909.46,329.78 906.96,329.50 901.00,329.51 C891.20,329.52 885.24,331.40 877.62,336.87 C871.84,341.02 863.34,351.03 860.12,357.46 C855.81,366.11 850.22,370.62 848.71,366.69 ZM 1012.91 370.72 C1005.70,365.86 1002.78,354.49 1006.64,346.34 C1010.06,339.14 1019.49,335.87 1025.94,339.63 L 1026.00 339.66 C1026.03,339.68 1026.07,339.70 1026.10,339.72 C1026.12,339.73 1026.14,339.74 1026.16,339.76 C1027.66,340.72 1029.36,342.88 1030.83,345.52 C1031.65,347.83 1032.00,350.76 1032.00,354.59 C1032.00,358.43 1031.61,361.47 1030.73,363.93 C1029.67,366.20 1028.45,368.13 1027.30,369.05 C1026.20,369.94 1025.18,370.66 1024.20,371.24 C1024.03,371.33 1023.86,371.42 1023.68,371.51 C1021.86,372.42 1020.32,372.89 1018.83,372.90 C1016.92,372.88 1015.02,372.14 1012.91,370.72 ZM 1152.65 330.78 C1151.78,329.41 1148.96,323.07 1146.31,316.81 L 1146.30 316.78 C1143.55,310.30 1141.00,303.90 1141.00,303.19 C1141.00,302.96 1140.79,302.35 1140.45,301.51 C1140.08,300.58 1139.57,299.41 1139.00,298.24 C1137.90,295.96 1137.00,293.62 1137.00,293.05 C1137.00,292.39 1140.64,292.00 1146.82,292.00 L 1156.63 292.00 L 1160.54 301.75 C1162.69,307.11 1165.19,312.85 1166.11,314.50 C1166.51,315.23 1166.93,316.14 1167.31,317.06 C1168.02,319.41 1168.46,321.24 1168.53,322.27 C1168.35,323.00 1167.83,323.65 1166.77,324.52 C1164.20,326.48 1159.28,329.89 1156.28,331.76 C1155.44,332.22 1154.86,332.42 1154.41,332.41 C1153.83,332.21 1153.19,331.64 1152.65,330.78 ZM 1155.00 260.72 C1150.95,258.70 1149.00,253.53 1149.00,244.78 C1149.00,237.32 1149.11,236.95 1152.44,233.63 C1158.04,228.03 1164.12,228.05 1169.21,233.68 C1171.49,236.20 1174.00,242.34 1174.00,245.38 C1174.00,248.64 1170.39,256.93 1167.76,259.75 C1165.34,262.33 1159.16,262.80 1155.00,260.72 ZM 447.00 481.00 C448.88,479.12 449.00,477.67 449.00,456.50 C449.00,435.33 448.88,433.88 447.00,432.00 C443.03,428.03 437.70,430.73 436.46,437.36 C436.10,439.27 435.97,449.46 436.15,460.00 C436.49,478.75 436.55,479.22 438.86,481.09 C441.89,483.54 444.49,483.51 447.00,481.00 ZM 402.17 481.35 C403.84,479.83 404.00,477.70 404.00,456.55 C404.00,439.88 403.66,433.06 402.80,432.20 C402.14,431.54 400.13,431.00 398.32,431.00 C392.81,431.00 391.78,433.82 391.26,450.30 C390.72,467.32 392.06,479.84 394.62,481.71 C397.03,483.47 399.98,483.33 402.17,481.35 ZM 929.00 413.32 C925.97,413.10 914.95,412.50 904.50,411.97 C883.16,410.90 868.60,409.65 865.25,408.58 C858.61,406.47 865.75,406.00 904.41,406.00 L 945.82 406.00 L 948.45 402.88 C949.89,401.16 951.79,398.35 952.66,396.63 C953.94,394.12 954.42,393.15 955.00,393.09 C955.36,393.05 955.76,393.38 956.41,393.93 L 956.48 393.98 C960.36,397.21 956.42,408.18 950.22,411.38 C947.11,412.99 937.09,413.90 929.00,413.32 ZM 966.36 364.05 C968.60,363.20 970.11,360.79 972.99,353.50 C974.18,350.50 978.00,336.35 978.00,334.96 C978.00,333.53 970.19,334.17 957.40,336.65 L 949.30 338.21 L 952.03 346.92 C954.66,355.32 957.15,361.12 959.25,363.75 C960.44,365.24 962.95,365.35 966.36,364.05 ZM 1232.32 418.30 C1229.24,417.70 1227.80,415.59 1226.79,410.20 C1226.31,407.61 1225.67,404.38 1225.39,403.00 C1224.97,401.01 1226.11,399.02 1231.02,393.20 C1234.41,389.18 1237.71,386.06 1238.34,386.27 C1239.72,386.72 1243.97,394.84 1243.99,397.05 C1244.00,397.90 1244.42,399.03 1244.94,399.55 C1245.94,400.56 1248.02,416.98 1247.30,418.25 C1246.87,419.02 1236.21,419.06 1232.32,418.30 ZM 237.74 335.50 C235.02,327.08 232.28,310.19 231.05,294.16 C230.52,287.37 229.56,281.17 228.90,280.38 C227.97,279.26 227.98,278.34 228.92,276.27 C229.59,274.80 230.77,268.17 231.55,261.55 C233.03,248.80 236.62,230.23 238.04,227.93 C239.47,225.62 239.93,227.35 239.00,231.53 C235.89,245.46 235.07,295.43 237.56,319.24 C239.08,333.86 239.15,339.87 237.74,335.50 ZM 1192.50 459.14 C1183.19,456.41 1179.59,454.30 1173.77,448.17 C1169.98,444.19 1167.44,440.25 1165.23,434.93 C1160.68,423.94 1159.58,409.00 1163.34,409.00 C1164.23,409.00 1164.98,411.92 1165.73,418.37 C1167.03,429.47 1169.24,434.33 1176.09,441.19 C1182.35,447.44 1187.82,449.95 1195.28,449.98 C1201.67,450.00 1202.21,450.52 1202.39,456.85 C1202.52,461.33 1201.11,461.66 1192.50,459.14 ZM 552.02 333.50 C551.82,306.71 550.86,286.63 549.60,282.97 C548.37,279.40 548.37,278.36 549.59,275.45 C550.60,273.03 551.03,267.27 551.11,255.28 C551.17,246.05 551.51,235.80 551.88,232.50 L 552.54 226.50 L 553.81 230.13 C555.23,234.21 555.81,318.59 554.48,329.50 C553.50,337.63 552.07,339.95 552.02,333.50 ZM 759.73 334.00 C759.38,333.17 758.12,329.35 756.94,325.50 C755.76,321.65 753.97,316.02 752.96,313.00 C751.95,309.98 749.71,302.55 747.98,296.50 C746.25,290.45 743.92,282.58 742.80,279.00 C739.71,269.12 736.02,256.19 734.37,249.50 C731.43,237.54 730.07,231.47 730.04,230.17 C729.97,227.71 732.44,229.62 733.15,232.57 C734.03,236.26 735.72,241.80 741.55,260.00 C744.10,267.98 746.76,276.52 747.45,279.00 C748.15,281.48 749.73,287.10 750.96,291.50 C753.28,299.77 755.67,308.79 759.12,322.34 C760.94,329.50 761.38,337.81 759.73,334.00 ZM 1071.58 347.88 C1069.83,346.51 1066.86,345.51 1063.64,345.22 C1057.53,344.67 1055.39,343.03 1053.80,337.72 C1051.99,331.68 1053.57,331.00 1069.27,331.00 L 1082.16 331.00 L 1081.50 334.25 C1080.87,337.36 1080.21,339.87 1078.32,346.49 C1077.24,350.25 1075.14,350.69 1071.58,347.88 ZM 467.73 334.00 C466.94,331.94 460.92,312.73 457.07,300.00 C455.32,294.23 453.08,287.02 452.08,284.00 C451.09,280.98 449.48,275.58 448.52,272.00 C446.81,265.69 444.82,258.83 441.68,248.50 C439.55,241.49 437.69,231.43 438.23,229.84 C438.81,228.10 441.52,233.33 442.46,238.00 C442.85,239.93 444.43,245.32 445.97,250.00 C452.05,268.43 456.84,283.89 458.97,292.00 C460.21,296.67 462.03,303.20 463.03,306.50 C464.03,309.80 465.07,313.85 465.35,315.50 C465.63,317.15 466.58,321.64 467.46,325.47 C468.97,332.06 469.16,337.71 467.73,334.00 ZM 735.83 471.97 C730.70,468.97 729.18,449.26 733.61,443.32 C738.36,436.96 743.82,441.89 744.74,453.37 C745.35,460.90 742.94,470.43 740.04,471.98 L 739.81 472.10 C738.81,472.64 738.32,472.90 737.84,472.89 C737.35,472.87 736.86,472.57 735.83,471.97 ZM 657.10 468.92 C653.08,462.31 653.28,447.11 657.46,442.26 C660.41,438.83 664.21,439.69 666.12,444.24 C668.04,448.77 667.95,464.58 665.99,468.50 C663.77,472.94 659.66,473.13 657.10,468.92 ZM 234.31 469.35 C231.69,465.35 231.83,451.03 234.55,445.58 C236.99,440.68 240.04,439.40 243.20,441.96 C245.34,443.70 245.50,444.56 245.50,454.66 C245.50,467.72 244.19,471.33 239.30,471.81 C236.75,472.06 235.77,471.57 234.31,469.35 ZM 518.00 466.82 C515.59,461.50 515.51,454.16 517.79,447.58 C519.75,441.96 521.59,440.43 525.31,441.36 C528.84,442.25 530.34,447.53 529.85,457.31 C529.41,465.98 527.11,470.28 522.63,470.82 C520.34,471.09 519.69,470.53 518.00,466.82 ZM 626.84 311.34 C626.52,289.74 626.18,284.96 624.79,282.22 C623.25,279.19 623.25,278.67 624.75,275.22 C626.01,272.31 626.49,266.59 626.93,249.00 C627.41,229.99 627.70,226.85 628.78,228.75 C630.52,231.79 630.12,334.28 628.36,336.04 C627.51,336.89 627.12,330.68 626.84,311.34 ZM 976.00 409.15 C970.95,404.11 970.81,395.93 975.69,391.41 C979.21,388.15 983.61,388.25 987.20,391.69 C989.62,394.01 990.00,395.14 990.00,399.99 C990.00,405.03 989.66,405.94 986.70,408.80 C982.63,412.75 979.69,412.85 976.00,409.15 ZM 334.65 310.87 C334.15,291.65 333.60,283.91 332.59,281.88 C331.39,279.47 331.41,278.52 332.80,274.80 C334.02,271.52 334.49,265.55 334.79,249.70 C335.07,234.48 335.49,229.00 336.34,229.28 C337.94,229.82 338.01,334.39 336.41,335.99 C335.63,336.77 335.13,329.77 334.65,310.87 ZM 1136.65 249.05 C1136.61,248.01 1136.58,246.84 1136.57,245.50 C1136.55,242.34 1136.56,240.23 1136.75,238.55 C1137.09,235.77 1137.91,234.08 1139.84,230.73 C1141.07,228.60 1142.73,226.48 1144.47,224.70 C1144.52,224.65 1144.57,224.59 1144.62,224.54 C1147.25,221.88 1150.03,220.00 1151.73,220.00 C1153.94,220.00 1153.12,222.06 1149.08,226.65 C1145.59,230.61 1143.30,235.73 1142.39,240.94 C1141.98,243.33 1141.85,245.73 1142.03,248.06 C1142.15,250.13 1142.45,252.25 1142.95,254.39 C1143.96,258.73 1151.07,266.73 1154.75,267.65 C1158.39,268.57 1157.33,270.00 1153.00,270.00 C1149.85,270.00 1148.20,269.27 1145.18,266.55 C1144.62,266.04 1144.09,265.53 1143.59,265.02 C1141.95,263.23 1140.38,261.06 1138.98,258.62 C1137.66,255.86 1136.93,252.78 1136.65,249.05 ZM 1053.51 382.02 C1053.18,381.48 1053.47,380.02 1054.16,378.77 C1054.85,377.52 1056.35,372.67 1057.51,368.00 L 1059.60 359.50 L 1064.17 359.20 C1068.22,358.94 1068.81,359.16 1069.36,361.20 C1071.97,370.95 1065.50,383.00 1057.66,383.00 C1055.71,383.00 1053.85,382.56 1053.51,382.02 ZM 1175.02 383.54 C1173.78,380.51 1173.03,377.36 1173.35,376.54 C1174.14,374.48 1183.03,369.04 1185.64,369.02 C1188.21,369.00 1188.87,370.50 1189.66,378.06 L 1190.26 383.79 L 1185.72 385.80 L 1185.05 386.09 C1180.80,387.98 1178.92,388.81 1177.70,388.24 C1176.67,387.75 1176.12,386.26 1175.02,383.54 ZM 1199.27 380.25 C1198.12,378.19 1196.86,374.36 1196.48,371.75 L 1195.77 367.00 L 1202.83 367.00 C1206.71,367.00 1210.08,367.34 1210.33,367.75 C1211.10,369.05 1208.56,380.63 1207.13,382.36 C1204.74,385.21 1201.57,384.37 1199.27,380.25 ZM 403.37 421.93 C407.01,419.06 407.01,413.94 403.37,411.07 C398.15,406.97 391.59,409.31 390.40,415.71 C389.80,418.87 390.07,419.66 392.41,421.68 C395.76,424.55 399.91,424.65 403.37,421.93 ZM 448.37 421.93 C453.64,417.78 450.00,409.00 443.00,409.00 C438.95,409.00 435.00,412.89 435.00,416.88 C435.00,420.47 438.96,424.00 443.00,424.00 C444.50,424.00 446.92,423.07 448.37,421.93 ZM 1217.32 389.40 C1216.98,388.52 1217.27,384.02 1217.96,379.40 C1219.03,372.22 1219.49,371.00 1221.12,371.00 C1223.89,371.00 1231.00,375.75 1231.00,377.59 C1231.00,379.24 1220.32,391.00 1218.82,391.00 C1218.33,391.00 1217.66,390.28 1217.32,389.40 ZM 1078.00 439.90 C1078.00,439.29 1080.72,435.64 1084.05,431.78 C1086.62,428.81 1088.54,426.34 1090.05,423.90 C1090.92,422.59 1091.60,421.44 1091.97,420.64 C1092.38,419.71 1092.84,418.50 1093.31,417.12 C1093.83,415.65 1094.31,414.06 1094.77,412.29 C1095.38,410.10 1095.93,407.86 1096.33,405.92 C1098.68,397.07 1100.05,398.81 1098.03,410.08 C1097.50,413.06 1096.80,417.75 1096.47,420.50 C1096.04,424.09 1095.60,425.43 1091.99,429.16 L 1087.79 433.25 C1080.04,440.79 1078.00,442.17 1078.00,439.90 ZM 357.20 471.80 C355.52,470.12 355.70,465.87 357.56,463.22 C359.40,460.59 364.06,458.00 366.95,458.00 C368.71,458.00 369.00,458.63 369.00,462.39 C369.00,465.86 368.39,467.44 366.10,469.89 C363.08,473.13 359.33,473.93 357.20,471.80 ZM 280.00 450.27 C280.00,444.68 283.57,439.60 287.77,439.19 C290.42,438.93 291.20,439.34 292.17,441.48 C294.46,446.50 290.24,452.25 283.25,453.61 C280.02,454.25 280.00,454.22 280.00,450.27 ZM 898.50 449.41 C893.24,448.19 889.00,446.60 889.00,445.84 C889.00,445.38 892.26,444.99 896.25,444.98 C900.24,444.97 906.65,444.30 910.50,443.48 C919.00,441.68 919.00,441.68 919.00,443.30 C919.00,446.50 904.53,450.81 898.50,449.41 ZM 1021.25 359.61 C1023.30,358.05 1023.67,351.07 1021.80,349.20 C1018.47,345.87 1014.08,349.17 1014.03,355.05 C1013.98,360.52 1017.29,362.61 1021.25,359.61 ZM 284.83 334.25 C285.04,326.69 285.42,320.29 285.66,320.03 C287.96,317.60 288.89,335.58 286.88,343.56 C286.27,346.00 285.47,348.00 285.10,348.00 C284.74,348.00 284.62,341.81 284.83,334.25 ZM 1185.25 423.34 C1183.55,422.65 1183.68,420.51 1185.50,419.00 C1186.32,418.32 1187.00,416.67 1187.00,415.35 C1187.00,412.51 1189.40,411.26 1191.51,413.01 C1195.92,416.67 1190.57,425.48 1185.25,423.34 Z" fill="rgb(194,202,187)"/>
<path d="M 0.00 350.00 L 0.00 0.00 L 749.00 0.00 L 1498.00 0.00 L 1498.00 350.00 L 1498.00 700.00 L 749.00 700.00 L 0.00 700.00 L 0.00 350.00 ZM 1425.55 678.70 C1432.73,677.84 1439.86,676.82 1441.40,676.44 C1449.94,674.29 1465.85,660.68 1468.05,653.64 C1468.76,651.36 1470.04,648.93 1470.89,648.23 C1471.74,647.53 1472.50,645.96 1472.59,644.73 C1472.73,642.64 1473.88,639.12 1475.93,634.50 C1476.42,633.40 1477.11,631.61 1477.46,630.53 C1477.81,629.45 1478.10,498.23 1478.10,338.92 L 1478.09 49.28 L 1475.62 42.72 C1473.41,36.85 1471.77,33.69 1468.51,29.07 C1467.95,28.28 1464.90,25.07 1461.73,21.93 C1455.45,15.72 1445.92,10.21 1436.50,7.35 C1430.72,5.60 1405.38,5.52 757.50,5.22 C286.34,5.01 81.11,5.23 73.21,5.98 C56.66,7.54 45.46,12.23 35.75,21.65 C26.35,30.76 21.07,41.05 19.02,54.24 C18.20,59.54 17.97,138.10 18.20,345.00 C18.48,612.64 18.60,628.75 20.26,633.00 C21.22,635.47 22.42,638.40 22.93,639.50 C23.43,640.60 25.23,644.54 26.92,648.25 C28.61,651.97 30.00,655.28 30.00,655.63 C30.00,655.97 32.77,659.23 36.16,662.87 C47.56,675.14 57.45,678.57 85.00,679.87 C92.43,680.21 394.15,680.44 755.50,680.38 C1343.40,680.27 1413.87,680.09 1425.55,678.70 Z" fill="rgb(246,246,245)"/>
</g>
</svg>