<svg xmlns="http://www.w3.org/2000/svg" width="1479" height="709" viewBox="0 0 1479 709">
<g>
<path d="M 1415.42 655.30 C1410.24,656.84 81.45,657.54 80.50,656.00 C80.16,655.45 78.65,655.00 77.14,655.00 C75.63,655.00 73.97,654.62 73.45,654.16 C72.93,653.70 70.93,652.72 69.00,651.98 C57.25,647.48 43.45,633.67 39.54,622.50 C38.58,619.75 37.27,616.42 36.64,615.10 C35.79,613.31 35.50,540.80 35.50,332.60 L 35.50 52.50 L 38.82 44.81 C46.08,27.97 56.02,18.71 74.93,11.13 L 81.50 8.50 L 741.50 8.24 C798.68,8.22 851.02,8.19 898.93,8.17 C1406.29,7.94 1416.67,7.93 1423.65,12.80 C1424.46,13.36 1425.22,13.98 1426.69,14.68 C1439.82,20.90 1450.49,32.86 1454.91,46.31 C1456.94,52.47 1456.95,53.89 1457.16,333.67 C1457.32,529.49 1457.06,615.24 1456.33,616.17 C1455.75,616.90 1454.99,618.70 1454.64,620.16 C1453.60,624.52 1444.38,637.45 1438.74,642.46 C1433.41,647.20 1422.53,653.19 1415.42,655.30 ZM 713.50 627.49 C728.07,629.33 767.70,629.31 783.44,627.46 C809.47,624.39 836.63,617.24 860.00,607.29 C869.79,603.12 892.78,591.47 895.00,589.55 C895.83,588.84 901.22,585.45 907.00,582.01 C912.78,578.57 918.85,574.53 920.50,573.03 C922.15,571.53 927.13,567.58 931.56,564.25 C951.83,549.04 986.97,510.10 996.77,492.00 C997.81,490.08 1001.18,484.16 1004.25,478.85 C1007.32,473.55 1011.26,466.12 1012.99,462.35 C1014.72,458.58 1016.78,454.15 1017.56,452.50 C1023.63,439.66 1030.66,417.89 1034.02,401.50 C1039.34,375.55 1040.35,365.54 1040.42,338.00 C1040.49,311.78 1039.53,299.60 1035.84,280.00 C1026.56,230.57 1002.07,180.14 969.61,143.63 C951.84,123.64 934.89,108.03 918.44,96.50 C907.41,88.76 897.14,82.10 893.50,80.31 C891.30,79.22 887.25,77.02 884.50,75.41 C879.58,72.53 875.33,70.52 859.50,63.62 C831.43,51.36 796.24,43.09 763.72,41.10 C749.24,40.22 720.39,41.19 706.00,43.06 C695.39,44.43 669.13,50.29 658.50,53.66 C628.77,63.08 592.05,81.62 572.00,97.34 C551.50,113.40 530.43,133.33 519.48,147.00 C507.09,162.45 501.85,169.52 498.89,174.75 C497.10,177.91 494.61,181.88 493.34,183.56 C492.08,185.24 487.29,194.02 482.69,203.06 C459.46,248.69 448.67,300.62 451.95,351.00 C453.70,377.88 457.20,395.35 466.43,423.29 C474.74,448.46 489.41,477.44 503.51,496.54 C506.37,500.42 509.29,504.67 510.00,506.00 C511.87,509.49 521.04,521.00 521.96,521.00 C522.39,521.00 523.86,522.69 525.24,524.75 C529.44,531.05 557.60,558.80 563.71,562.66 C565.24,563.63 568.75,566.29 571.50,568.56 C577.83,573.78 588.88,581.44 596.00,585.54 C599.03,587.28 606.00,591.33 611.50,594.54 C624.51,602.13 648.53,612.53 659.82,615.45 C663.05,616.29 667.31,617.65 669.26,618.47 C673.90,620.40 700.72,625.87 713.50,627.49 ZM 1345.66 587.56 C1346.28,589.17 1346.41,589.16 1347.66,587.45 C1349.77,584.56 1349.41,582.71 1347.00,584.00 C1345.87,584.60 1345.31,584.90 1345.14,585.35 C1344.98,585.79 1345.21,586.37 1345.65,587.54 ZM 1357.72 571.39 C1358.05,571.72 1358.92,571.48 1359.66,570.87 C1361.13,569.65 1361.50,566.00 1360.16,566.00 C1359.06,566.00 1356.96,570.63 1357.72,571.39 Z" fill="rgb(38,67,132)"/>
<path d="M 713.50 627.49 C700.72,625.87 673.90,620.40 669.26,618.47 C667.31,617.65 663.05,616.29 659.82,615.45 C648.53,612.53 624.51,602.13 611.50,594.54 C606.00,591.33 599.03,587.28 596.00,585.54 C588.88,581.44 577.83,573.78 571.50,568.56 C568.75,566.29 565.24,563.63 563.71,562.66 C557.60,558.80 529.44,531.05 525.24,524.75 C523.86,522.69 522.39,521.00 521.96,521.00 C521.04,521.00 511.87,509.49 510.00,506.00 C509.29,504.67 506.37,500.42 503.51,496.54 C489.41,477.44 474.74,448.46 466.43,423.29 C457.20,395.35 453.70,377.88 451.95,351.00 C448.67,300.62 459.46,248.69 482.69,203.06 C487.29,194.02 492.08,185.24 493.34,183.56 C494.61,181.88 497.10,177.91 498.89,174.75 C501.85,169.52 507.09,162.45 519.48,147.00 C530.43,133.33 551.50,113.40 572.00,97.34 C592.05,81.62 628.77,63.08 658.50,53.66 C669.13,50.29 695.39,44.43 706.00,43.06 C720.39,41.19 749.24,40.22 763.72,41.10 C796.24,43.09 831.43,51.36 859.50,63.62 C875.33,70.52 879.58,72.53 884.50,75.41 C887.25,77.02 891.30,79.22 893.50,80.31 C897.14,82.10 907.41,88.76 918.44,96.50 C934.89,108.03 951.84,123.64 969.61,143.63 C1002.07,180.14 1026.56,230.57 1035.84,280.00 C1039.53,299.60 1040.49,311.78 1040.42,338.00 C1040.35,365.54 1039.34,375.55 1034.02,401.50 C1030.66,417.89 1023.63,439.66 1017.56,452.50 C1016.78,454.15 1014.72,458.58 1012.99,462.35 C1011.26,466.12 1007.32,473.55 1004.25,478.85 C1001.18,484.16 997.81,490.08 996.77,492.00 C986.97,510.10 951.83,549.04 931.56,564.25 C927.13,567.58 922.15,571.53 920.50,573.03 C918.85,574.53 912.78,578.57 907.00,582.01 C901.22,585.45 895.83,588.84 895.00,589.55 C892.78,591.47 869.79,603.12 860.00,607.29 C836.63,617.24 809.47,624.39 783.44,627.46 C767.70,629.31 728.07,629.33 713.50,627.49 ZM 727.50 620.30 C729.70,620.50 739.61,620.74 749.53,620.83 C769.47,621.02 784.68,619.48 803.00,615.44 C809.33,614.05 816.34,612.50 818.59,612.01 C820.84,611.52 826.92,609.69 832.09,607.94 C861.31,598.06 882.40,587.65 906.39,571.24 C922.60,560.15 921.06,561.34 935.91,548.36 C947.89,537.88 951.65,534.09 963.55,520.50 C988.70,491.78 1010.21,452.70 1019.98,418.00 C1020.68,415.52 1021.83,411.48 1022.54,409.00 C1023.74,404.85 1025.63,395.93 1027.96,383.50 C1031.98,362.05 1032.77,321.72 1029.58,300.50 C1028.59,293.90 1027.42,286.02 1026.97,283.00 C1025.76,274.79 1019.52,251.09 1015.96,241.19 C1010.16,225.08 999.54,202.25 994.00,194.00 C993.08,192.62 992.07,190.79 991.76,189.92 C991.18,188.29 972.22,159.89 971.12,159.00 C970.78,158.73 967.84,155.35 964.58,151.50 C924.93,104.62 870.68,71.40 810.50,57.14 C788.04,51.82 777.08,50.68 748.00,50.62 C717.63,50.57 707.38,51.58 683.82,56.98 C670.19,60.10 668.77,60.52 651.50,66.43 C612.05,79.92 576.47,102.53 544.43,134.47 C522.42,156.42 504.72,180.82 491.52,207.41 C473.49,243.75 465.13,274.92 461.87,318.00 C460.03,342.22 463.34,376.37 469.96,401.50 C479.87,439.15 499.98,478.56 525.81,511.00 C535.89,523.65 558.99,546.66 572.00,556.99 C617.52,593.15 671.94,615.31 727.50,620.30 ZM 772.50 477.52 C769.20,478.41 761.10,479.33 754.50,479.56 C744.27,479.91 741.24,479.64 734.00,477.69 C718.90,473.62 706.21,466.05 694.89,454.36 C673.94,432.71 661.85,400.60 655.42,349.50 C654.47,341.92 651.34,330.45 649.43,327.54 C648.50,326.11 645.88,323.41 643.62,321.53 L 639.51 318.11 L 643.54 314.66 C648.31,310.58 652.27,302.82 653.84,294.50 C659.61,263.83 663.96,245.14 666.85,238.60 C668.03,235.93 669.00,233.32 669.00,232.80 C669.00,231.18 678.65,212.38 682.08,207.31 C691.37,193.57 704.29,182.19 718.59,175.13 C729.57,169.72 736.41,168.03 750.13,167.32 C766.38,166.48 780.16,168.61 789.00,173.33 C799.90,179.14 803.44,181.75 810.61,189.24 C816.79,195.70 819.52,199.57 823.16,207.00 C827.95,216.77 829.96,222.44 832.03,232.00 C834.24,242.18 836.39,247.45 838.75,248.49 C840.50,249.25 841.00,250.30 841.00,253.16 C841.00,261.00 831.53,268.80 821.84,268.95 C818.58,268.99 817.83,269.53 815.13,273.75 C809.01,283.33 804.99,286.23 797.83,286.23 C790.58,286.23 789.48,284.77 789.86,275.62 C790.16,268.49 790.09,268.24 787.66,267.63 C781.22,266.01 775.76,258.33 774.51,249.12 L 773.78 243.74 L 778.14 244.38 C786.75,245.64 792.16,239.17 792.08,227.72 C791.91,204.21 772.20,188.58 750.14,194.45 C733.47,198.89 723.08,214.51 719.84,240.00 C718.26,252.40 718.29,283.94 719.89,292.46 C721.57,301.38 725.99,310.03 730.85,313.88 C733.13,315.69 735.00,317.57 735.00,318.06 C735.00,318.55 733.63,319.66 731.96,320.52 C728.41,322.36 722.92,330.62 721.13,336.81 C718.96,344.30 717.81,364.78 718.46,384.00 C719.61,417.63 722.55,430.72 731.18,440.55 C738.65,449.06 753.43,452.30 761.00,447.09 C768.04,442.24 771.14,436.80 773.31,425.50 C776.33,409.78 776.16,384.78 772.95,373.62 C771.33,368.00 767.63,364.62 763.93,365.39 C762.32,365.72 759.65,366.28 758.00,366.62 L 755.00 367.25 L 755.00 361.09 C755.00,351.77 758.59,344.84 765.20,341.40 C768.84,339.51 779.03,339.63 783.99,341.61 C787.32,342.94 788.30,343.00 789.58,341.93 C792.11,339.84 807.16,339.43 811.01,341.36 C813.40,342.55 814.71,342.69 816.17,341.91 C819.98,339.87 828.24,339.18 833.24,340.47 C842.05,342.76 846.00,348.78 846.00,359.94 L 846.00 366.95 L 843.43 365.98 C836.16,363.21 831.23,366.07 828.40,374.70 C826.71,379.86 826.50,383.70 826.50,409.50 C826.50,435.30 826.70,439.00 828.33,443.00 C831.02,449.63 833.62,452.00 838.17,452.00 L 842.00 452.00 L 842.00 457.79 C842.00,465.15 838.88,471.66 834.00,474.48 C828.47,477.67 817.17,477.24 810.00,473.55 C806.97,472.00 803.43,469.89 802.12,468.86 C800.80,467.84 799.03,467.00 798.17,467.00 C797.32,467.00 792.54,469.00 787.56,471.45 C782.58,473.89 775.80,476.62 772.50,477.52 ZM 687.24 412.34 L 688.46 414.50 L 688.81 412.12 C689.01,410.81 688.24,404.29 687.10,397.62 C682.42,370.32 681.62,359.17 681.56,321.00 C681.50,283.43 682.33,271.81 686.66,249.50 C690.39,230.26 690.17,228.42 685.23,237.77 C681.32,245.16 674.88,270.02 671.44,291.00 C669.42,303.35 668.05,308.79 666.03,312.63 C663.39,317.64 663.36,317.83 665.11,320.13 C667.44,323.21 669.58,332.02 671.03,344.50 C674.28,372.50 681.27,401.72 687.24,412.34 ZM 764.58 608.10 C756.87,611.61 745.79,608.98 744.36,603.32 C742.97,597.74 747.96,595.20 751.96,599.46 C754.29,601.94 758.32,602.77 760.59,601.23 C762.09,600.22 764.00,594.32 764.00,590.68 L 764.00 587.65 L 761.69 589.83 C759.93,591.47 758.13,592.00 754.26,592.00 C749.95,592.00 748.70,591.55 746.23,589.07 C739.05,581.89 739.84,564.21 747.61,558.09 C750.76,555.61 757.52,555.32 760.44,557.53 C763.01,559.48 763.67,559.39 764.29,557.00 C764.89,554.72 769.14,554.22 770.75,556.25 C771.30,556.94 772.06,566.32 772.45,577.11 C773.12,596.08 773.07,596.86 770.90,601.48 C769.18,605.15 767.72,606.68 764.58,608.10 ZM 556.95 497.63 C554.07,500.30 549.24,500.78 548.36,498.48 C548.04,497.65 547.97,495.91 548.22,494.62 C548.59,492.71 548.07,492.06 545.36,491.09 C540.40,489.29 538.00,485.63 538.00,479.82 C538.00,475.37 538.43,474.46 542.62,469.98 C547.79,464.44 557.66,459.00 562.51,459.00 C567.64,459.00 572.30,462.79 573.28,467.77 C574.09,471.87 575.24,473.04 576.49,471.02 C577.65,469.14 587.73,463.00 589.65,463.00 C592.26,463.00 594.00,464.89 594.00,467.71 C594.00,469.29 592.72,470.88 589.96,472.76 C583.46,477.16 559.74,495.03 556.95,497.63 ZM 815.01 585.49 C814.32,586.32 812.51,587.00 810.99,587.00 C807.75,587.00 807.48,586.43 801.04,566.21 C797.65,555.55 797.06,552.64 798.03,551.46 C799.61,549.56 801.91,549.61 804.09,551.58 C805.71,553.04 806.14,552.86 809.92,549.08 C814.34,544.66 817.16,544.02 820.84,546.60 C823.45,548.43 823.58,548.36 825.84,543.83 C827.05,541.40 828.61,540.15 831.58,539.21 C836.91,537.52 840.38,538.83 843.19,543.60 C846.45,549.13 852.15,566.83 851.80,570.36 C851.54,573.06 851.07,573.54 848.39,573.80 C845.72,574.06 845.06,573.64 843.75,570.80 C842.91,568.99 841.91,566.38 841.53,565.00 C841.15,563.62 839.71,559.46 838.33,555.75 C836.31,550.32 835.32,548.87 833.26,548.35 C831.38,547.88 830.31,548.22 829.27,549.60 C827.47,552.03 828.10,556.15 832.17,568.54 L 835.32 578.13 L 833.14 580.31 C831.12,582.32 830.76,582.37 828.35,580.99 C825.81,579.54 823.35,573.97 820.13,562.35 C819.50,560.06 818.14,557.16 817.12,555.90 C815.32,553.67 815.17,553.66 812.63,555.32 C809.55,557.34 809.24,560.63 811.43,567.81 C816.20,583.45 816.30,583.93 815.01,585.49 ZM 877.62 559.38 C870.66,562.68 862.20,560.75 857.70,554.85 C848.51,542.80 849.03,530.09 858.92,525.04 C865.74,521.56 872.84,522.88 878.16,528.63 C888.22,539.49 887.95,554.47 877.62,559.38 ZM 927.93 520.54 C924.60,522.26 918.54,522.32 914.97,520.67 C910.29,518.50 904.92,513.71 902.45,509.51 C899.20,503.97 899.07,496.11 902.15,491.79 C904.51,488.48 911.03,485.06 915.05,485.02 C920.08,484.98 927.79,489.86 932.01,495.76 C935.56,500.71 936.00,501.97 936.00,507.09 C936.00,511.84 935.54,513.39 933.38,515.96 C931.94,517.67 929.49,519.73 927.93,520.54 ZM 638.99 566.51 C637.48,568.33 636.43,568.33 632.25,566.51 C629.80,565.45 629.00,564.47 629.00,562.55 C629.00,560.29 628.59,560.00 625.43,560.00 C621.50,560.00 618.65,558.80 615.25,555.70 C613.56,554.17 613.00,552.54 613.00,549.23 C613.00,545.53 613.56,544.24 616.40,541.40 C619.27,538.53 620.51,538.00 624.37,538.00 C626.88,538.00 631.02,538.71 633.58,539.58 C639.04,541.43 640.28,540.70 639.82,535.88 L 639.50 532.50 L 633.50 532.50 C626.80,532.50 625.00,531.76 625.00,529.00 C625.00,526.20 628.87,524.00 633.79,524.00 C638.84,524.00 641.28,525.08 645.75,529.32 C648.56,531.98 649.00,533.06 649.00,537.32 C649.00,541.41 648.15,543.72 643.95,550.99 C639.99,557.85 639.04,560.32 639.56,562.39 C639.96,563.96 639.72,565.63 638.99,566.51 ZM 585.83 524.40 C581.36,527.54 573.58,525.49 568.48,519.85 C565.50,516.55 565.00,515.29 565.00,511.06 C565.00,504.55 566.11,501.92 571.18,496.42 C580.76,486.03 591.85,485.09 599.38,494.04 C603.64,499.11 602.34,509.14 597.06,511.97 C592.67,514.32 583.93,511.91 578.36,506.81 C576.22,504.86 576.21,504.86 574.61,507.15 C572.50,510.16 572.58,512.26 574.91,515.14 C576.49,517.09 577.76,517.50 582.16,517.50 C587.19,517.50 587.52,517.65 587.81,520.15 C588.02,522.01 587.43,523.29 585.83,524.40 ZM 730.95 591.75 C730.30,593.36 729.22,594.00 727.14,594.00 C722.21,594.00 721.73,592.36 723.46,581.61 C726.08,565.31 725.22,560.98 719.64,562.38 C715.75,563.35 714.19,567.06 712.86,578.50 C711.60,589.37 710.47,592.00 707.05,592.00 C702.79,592.00 702.51,589.88 704.39,572.17 C706.23,554.93 707.21,552.00 711.18,552.00 C712.26,552.00 713.54,553.15 714.22,554.75 C714.87,556.26 715.52,557.66 715.65,557.86 C715.78,558.06 717.10,557.28 718.58,556.11 C722.42,553.10 727.26,553.36 731.11,556.80 C734.10,559.48 734.24,559.95 734.18,566.92 C734.10,574.93 732.37,588.20 730.95,591.75 ZM 950.95 493.53 C949.38,494.34 947.05,495.00 945.77,495.00 C942.99,495.00 939.00,492.41 939.00,490.60 C939.00,488.43 942.49,486.00 945.61,486.00 C949.95,486.00 953.18,483.38 952.81,480.15 C952.33,476.02 948.22,476.12 941.24,480.43 C934.27,484.74 930.34,485.00 926.11,481.44 C922.81,478.66 921.34,473.78 922.46,469.31 C922.83,467.82 925.07,464.66 927.44,462.30 C931.10,458.63 932.34,458.00 935.83,458.00 C938.79,458.00 940.20,458.51 940.92,459.85 C942.36,462.53 939.64,466.00 936.10,466.00 C930.82,466.00 927.68,473.09 932.64,473.80 C933.81,473.97 937.78,472.51 941.47,470.55 C950.03,466.01 953.18,465.98 957.60,470.40 C960.55,473.35 961.00,474.46 961.00,478.72 C961.00,482.92 960.48,484.25 957.40,487.85 C955.42,490.16 952.52,492.72 950.95,493.53 ZM 606.80 545.80 C602.92,549.68 592.99,543.20 593.00,536.79 C593.01,534.05 595.61,529.60 601.92,521.50 C608.43,513.15 608.47,513.07 606.35,511.49 C603.53,509.40 605.78,506.50 610.22,506.50 C612.91,506.50 614.31,505.77 616.43,503.25 C619.33,499.83 623.51,498.91 625.80,501.20 C627.68,503.08 627.25,504.81 623.83,509.06 L 620.66 513.01 L 622.83 515.32 C627.20,519.97 624.31,524.47 618.97,521.33 L 615.85 519.50 L 613.18 522.67 C604.32,533.16 602.54,537.29 605.87,539.62 C608.23,541.28 608.64,543.96 606.80,545.80 ZM 910.16 536.35 C908.59,537.85 905.64,539.35 903.61,539.68 C900.15,540.24 899.59,539.94 895.32,535.39 C892.80,532.70 888.94,528.14 886.75,525.25 C884.55,522.36 882.58,520.00 882.37,520.00 C882.15,520.00 881.08,520.56 880.00,521.23 C878.33,522.28 877.69,522.13 875.85,520.30 C873.76,518.21 873.75,518.04 875.42,515.48 C877.11,512.91 877.08,512.73 874.58,509.11 C871.22,504.27 871.24,501.30 874.64,499.76 C877.11,498.63 877.53,498.84 881.20,502.98 C884.55,506.75 885.38,507.23 886.82,506.20 C889.62,504.18 890.93,503.76 892.50,504.36 C894.73,505.22 894.33,509.66 891.87,511.38 C889.74,512.87 889.75,512.89 894.26,519.19 C901.98,529.97 903.70,531.03 908.17,527.81 C909.47,526.87 910.17,526.90 911.42,527.93 C913.82,529.93 913.32,533.32 910.16,536.35 ZM 671.73 581.19 C669.64,582.52 667.39,582.08 665.49,579.99 C663.71,578.02 663.81,577.54 669.28,561.24 C677.96,535.35 679.98,530.83 683.35,529.71 C685.54,528.99 686.56,529.13 687.78,530.35 C688.11,530.68 688.38,530.94 688.57,531.26 C689.35,532.61 688.50,534.92 683.70,547.86 L 683.47 548.50 C681.43,554.00 678.23,563.43 676.36,569.46 C674.49,575.48 672.40,580.76 671.73,581.19 ZM 654.96 571.62 C653.89,574.43 649.03,574.94 646.97,572.47 C645.34,570.50 647.28,564.61 654.39,550.00 C659.43,539.64 659.55,539.50 663.00,539.50 C668.33,539.50 668.07,542.56 661.48,556.95 C658.39,563.71 655.45,570.31 654.96,571.62 ZM 691.65 583.99 C689.77,587.83 684.44,587.59 683.44,583.61 C682.84,581.22 689.60,553.38 691.31,551.20 C692.87,549.21 698.41,550.11 698.85,552.42 C699.28,554.69 693.42,580.37 691.65,583.99 ZM 789.73 406.24 C789.40,421.91 789.57,429.77 790.23,429.36 C792.37,428.04 795.96,417.76 797.08,409.75 C798.07,402.67 798.00,400.10 796.67,393.56 C795.05,385.61 792.44,380.11 791.03,381.64 C790.59,382.11 790.01,393.18 789.73,406.24 ZM 866.54 549.87 C871.47,555.73 878.05,553.00 876.59,545.70 C876.25,544.02 874.58,540.46 872.86,537.79 C868.52,531.02 864.83,529.32 861.57,532.57 C858.51,535.63 860.56,542.75 866.54,549.87 ZM 921.12 513.23 C924.01,513.73 927.38,511.88 927.84,509.55 C928.89,504.26 918.37,493.62 912.66,494.20 C906.12,494.86 906.66,500.75 913.91,508.00 C916.56,510.65 919.80,513.01 921.12,513.23 ZM 549.02 484.02 C550.11,485.11 551.69,486.00 552.53,486.00 C555.74,486.00 560.64,483.15 564.18,479.22 C567.30,475.77 567.75,474.71 567.12,472.32 C565.66,466.82 557.52,468.50 550.90,475.68 C547.16,479.73 546.72,481.72 549.02,484.02 ZM 753.52 583.03 C757.56,587.48 762.12,583.86 762.72,575.73 C763.44,566.03 757.95,560.05 752.94,565.06 C750.99,567.01 750.80,568.02 751.24,574.15 C751.58,578.83 752.31,581.69 753.52,583.03 ZM 672.07 533.96 C671.00,534.53 669.99,534.95 669.82,534.88 C669.64,534.82 668.60,534.55 667.50,534.28 C664.43,533.52 663.00,531.98 663.00,529.45 C663.00,524.54 669.05,522.19 672.35,525.83 C674.61,528.34 674.47,532.68 672.07,533.96 ZM 702.80 542.80 C702.14,543.46 700.21,544.00 698.50,544.00 C694.72,544.00 693.00,542.44 693.00,539.00 C693.00,535.68 694.70,534.00 698.04,534.00 C702.70,534.00 705.82,539.78 702.80,542.80 ZM 583.50 502.43 C588.36,506.48 594.00,505.44 594.00,500.50 C594.00,499.35 593.46,497.86 592.80,497.20 C590.96,495.36 585.49,495.78 582.86,497.96 L 580.50 499.93 ZM 623.15 552.25 C624.23,554.30 628.88,554.59 631.19,552.75 C632.06,552.06 633.53,550.29 634.46,548.81 L 636.15 546.12 L 632.58 545.45 C625.64,544.15 620.75,547.67 623.15,552.25 Z" fill="rgb(47,52,57)"/>
<path d="M 727.50 620.30 C671.94,615.31 617.52,593.15 572.00,556.99 C558.99,546.66 535.89,523.65 525.81,511.00 C499.98,478.56 479.87,439.15 469.96,401.50 C463.34,376.37 460.03,342.22 461.87,318.00 C465.13,274.92 473.49,243.75 491.52,207.41 C504.72,180.82 522.42,156.42 544.43,134.47 C576.47,102.53 612.05,79.92 651.50,66.43 C668.77,60.52 670.19,60.10 683.82,56.98 C707.38,51.58 717.63,50.57 748.00,50.62 C777.08,50.68 788.04,51.82 810.50,57.14 C870.68,71.40 924.93,104.62 964.58,151.50 C967.84,155.35 970.78,158.73 971.12,159.00 C972.22,159.89 991.18,188.29 991.76,189.92 C992.07,190.79 993.08,192.62 994.00,194.00 C999.54,202.25 1010.16,225.08 1015.96,241.19 C1019.52,251.09 1025.76,274.79 1026.97,283.00 C1027.42,286.02 1028.59,293.90 1029.58,300.50 C1032.77,321.72 1031.98,362.05 1027.96,383.50 C1025.63,395.93 1023.74,404.85 1022.54,409.00 C1021.83,411.48 1020.68,415.52 1019.98,418.00 C1010.21,452.70 988.70,491.78 963.55,520.50 C951.65,534.09 947.89,537.88 935.91,548.36 C921.06,561.34 922.60,560.15 906.39,571.24 C882.40,587.65 861.31,598.06 832.09,607.94 C826.92,609.69 820.84,611.52 818.59,612.01 C816.34,612.50 809.33,614.05 803.00,615.44 C784.68,619.48 769.47,621.02 749.53,620.83 C739.61,620.74 729.70,620.50 727.50,620.30 ZM 772.50 477.52 C775.80,476.62 782.58,473.89 787.56,471.45 C792.54,469.00 797.32,467.00 798.17,467.00 C799.03,467.00 800.80,467.84 802.12,468.86 C803.43,469.89 806.97,472.00 810.00,473.55 C817.17,477.24 828.47,477.67 834.00,474.48 C838.88,471.66 842.00,465.15 842.00,457.79 L 842.00 452.00 L 838.17 452.00 C833.62,452.00 831.02,449.63 828.33,443.00 C826.70,439.00 826.50,435.30 826.50,409.50 C826.50,383.70 826.71,379.86 828.40,374.70 C831.23,366.07 836.16,363.21 843.43,365.98 L 846.00 366.95 L 846.00 359.94 C846.00,348.78 842.05,342.76 833.24,340.47 C828.24,339.18 819.98,339.87 816.17,341.91 C814.71,342.69 813.40,342.55 811.01,341.36 C807.16,339.43 792.11,339.84 789.58,341.93 C788.30,343.00 787.32,342.94 783.99,341.61 C779.03,339.63 768.84,339.51 765.20,341.40 C758.59,344.84 755.00,351.77 755.00,361.09 L 755.00 367.25 L 758.00 366.62 C759.65,366.28 762.32,365.72 763.93,365.39 C767.63,364.62 771.33,368.00 772.95,373.62 C776.16,384.78 776.33,409.78 773.31,425.50 C771.14,436.80 768.04,442.24 761.00,447.09 C753.43,452.30 738.65,449.06 731.18,440.55 C722.55,430.72 719.61,417.63 718.46,384.00 C717.81,364.78 718.96,344.30 721.13,336.81 C722.92,330.62 728.41,322.36 731.96,320.52 C733.63,319.66 735.00,318.55 735.00,318.06 C735.00,317.57 733.13,315.69 730.85,313.88 C725.99,310.03 721.57,301.38 719.89,292.46 C718.29,283.94 718.26,252.40 719.84,240.00 C723.08,214.51 733.47,198.89 750.14,194.45 C772.20,188.58 791.91,204.21 792.08,227.72 C792.16,239.17 786.75,245.64 778.14,244.38 L 773.78 243.74 L 774.51 249.12 C775.76,258.33 781.22,266.01 787.66,267.63 C790.09,268.24 790.16,268.49 789.86,275.62 C789.48,284.77 790.58,286.23 797.83,286.23 C804.99,286.23 809.01,283.33 815.13,273.75 C817.83,269.53 818.58,268.99 821.84,268.95 C831.53,268.80 841.00,261.00 841.00,253.16 C841.00,250.30 840.50,249.25 838.75,248.49 C836.39,247.45 834.24,242.18 832.03,232.00 C829.96,222.44 827.95,216.77 823.16,207.00 C819.52,199.57 816.79,195.70 810.61,189.24 C803.44,181.75 799.90,179.14 789.00,173.33 C780.16,168.61 766.38,166.48 750.13,167.32 C736.41,168.03 729.57,169.72 718.59,175.13 C704.29,182.19 691.37,193.57 682.08,207.31 C678.65,212.38 669.00,231.18 669.00,232.80 C669.00,233.32 668.03,235.93 666.85,238.60 C663.96,245.14 659.61,263.83 653.84,294.50 C652.27,302.82 648.31,310.58 643.54,314.66 L 639.51 318.11 L 643.62 321.53 C645.88,323.41 648.50,326.11 649.43,327.54 C651.34,330.45 654.47,341.92 655.42,349.50 C661.85,400.60 673.94,432.71 694.89,454.36 C706.21,466.05 718.90,473.62 734.00,477.69 C741.24,479.64 744.27,479.91 754.50,479.56 C761.10,479.33 769.20,478.41 772.50,477.52 ZM 1415.42 655.30 C1422.53,653.19 1433.41,647.20 1438.74,642.46 C1443.22,638.49 1449.95,629.51 1453.06,623.80 L 1452.98 624.00 C1451.75,627.03 1449.95,630.63 1448.97,632.02 C1447.85,633.61 1447.38,635.55 1447.71,637.27 C1448.39,640.81 1446.09,644.27 1440.73,647.75 C1438.40,649.26 1436.34,650.86 1436.15,651.30 C1435.33,653.17 1430.19,657.20 1426.06,659.21 C1421.15,661.59 1410.74,663.89 1401.50,664.63 C1392.62,665.34 134.90,665.60 104.50,664.90 C76.48,664.25 70.86,663.34 64.32,658.40 C62.57,657.08 60.70,656.00 60.17,656.00 C59.64,656.00 58.15,654.85 56.85,653.43 C55.56,652.02 52.81,649.77 50.75,648.42 C43.65,643.79 37.22,632.09 41.08,630.81 C41.70,630.60 40.98,627.06 39.74,623.06 C43.91,634.13 57.45,647.56 69.00,651.98 C70.93,652.72 72.93,653.70 73.45,654.16 C73.97,654.62 75.63,655.00 77.14,655.00 C78.65,655.00 80.16,655.45 80.50,656.00 C81.45,657.54 1410.24,656.84 1415.42,655.30 ZM 1405.50 688.00 C1394.61,689.23 253.97,690.04 134.50,688.90 C64.30,688.24 62.70,688.09 49.61,681.42 C42.37,677.74 32.39,668.79 33.51,666.99 C33.84,666.44 33.57,666.00 32.89,666.00 C32.22,666.00 31.95,665.72 32.29,665.38 C32.63,665.04 32.25,664.11 31.45,663.31 C30.65,662.51 30.01,661.33 30.03,660.68 C30.05,660.03 31.07,660.62 32.30,662.00 C35.71,665.80 45.70,673.00 47.56,673.00 C48.47,673.00 49.00,673.56 48.74,674.25 C48.42,675.08 49.46,675.59 51.83,675.77 C53.79,675.91 55.69,676.49 56.04,677.06 C56.39,677.63 60.01,678.36 64.09,678.68 C68.16,679.01 72.76,679.91 74.30,680.69 C76.60,681.85 84.47,682.07 118.30,681.89 C140.96,681.78 160.85,681.69 162.50,681.69 C214.31,681.85 475.04,682.01 862.00,682.11 C1131.22,682.19 1353.53,682.25 1356.00,682.26 C1390.99,682.39 1403.19,681.92 1405.57,680.36 C1407.47,679.12 1409.50,678.86 1414.12,679.28 C1419.26,679.74 1420.42,679.54 1421.81,677.91 C1422.71,676.86 1424.69,676.00 1426.22,676.00 C1427.75,676.00 1429.00,675.58 1429.00,675.07 C1429.00,674.56 1430.24,673.51 1431.75,672.73 C1433.26,671.95 1436.27,670.25 1438.44,668.95 C1440.61,667.65 1442.04,667.12 1441.63,667.79 C1441.22,668.46 1441.36,669.00 1441.94,669.00 C1445.82,669.00 1436.32,678.91 1430.99,680.42 C1429.62,680.81 1425.57,682.42 1422.00,684.00 C1417.48,686.00 1412.45,687.22 1405.50,688.00 ZM 687.24 412.34 C681.27,401.72 674.28,372.50 671.03,344.50 C669.58,332.02 667.44,323.21 665.11,320.13 C663.36,317.83 663.39,317.64 666.03,312.63 C668.05,308.79 669.42,303.35 671.44,291.00 C674.88,270.02 681.32,245.16 685.23,237.77 C690.17,228.42 690.39,230.26 686.66,249.50 C682.33,271.81 681.50,283.43 681.56,321.00 C681.62,359.17 682.42,370.32 687.10,397.62 C688.24,404.29 689.01,410.81 688.81,412.12 L 688.46 414.50 ZM 764.58 608.10 C767.72,606.68 769.18,605.15 770.90,601.48 C773.07,596.86 773.12,596.08 772.45,577.11 C772.06,566.32 771.30,556.94 770.75,556.25 C769.14,554.22 764.89,554.72 764.29,557.00 C763.67,559.39 763.01,559.48 760.44,557.53 C757.52,555.32 750.76,555.61 747.61,558.09 C739.84,564.21 739.05,581.89 746.23,589.07 C748.70,591.55 749.95,592.00 754.26,592.00 C758.13,592.00 759.93,591.47 761.69,589.83 L 764.00 587.65 L 764.00 590.68 C764.00,594.32 762.09,600.22 760.59,601.23 C758.32,602.77 754.29,601.94 751.96,599.46 C747.96,595.20 742.97,597.74 744.36,603.32 C745.79,608.98 756.87,611.61 764.58,608.10 ZM 556.95 497.63 C559.74,495.03 583.46,477.16 589.96,472.76 C592.72,470.88 594.00,469.29 594.00,467.71 C594.00,464.89 592.26,463.00 589.65,463.00 C587.73,463.00 577.65,469.14 576.49,471.02 C575.24,473.04 574.09,471.87 573.28,467.77 C572.30,462.79 567.64,459.00 562.51,459.00 C557.66,459.00 547.79,464.44 542.62,469.98 C538.43,474.46 538.00,475.37 538.00,479.82 C538.00,485.63 540.40,489.29 545.36,491.09 C548.07,492.06 548.59,492.71 548.22,494.62 C547.97,495.91 548.04,497.65 548.36,498.48 C549.24,500.78 554.07,500.30 556.95,497.63 ZM 815.01 585.49 C816.30,583.93 816.20,583.45 811.43,567.81 C809.24,560.63 809.55,557.34 812.63,555.32 C815.17,553.66 815.32,553.67 817.12,555.90 C818.14,557.16 819.50,560.06 820.13,562.35 C823.35,573.97 825.81,579.54 828.35,580.99 C830.76,582.37 831.12,582.32 833.14,580.31 L 835.32 578.13 L 832.17 568.54 C828.10,556.15 827.47,552.03 829.27,549.60 C830.31,548.22 831.38,547.88 833.26,548.35 C835.32,548.87 836.31,550.32 838.33,555.75 C839.71,559.46 841.15,563.62 841.53,565.00 C841.91,566.38 842.91,568.99 843.75,570.80 C845.06,573.64 845.72,574.06 848.39,573.80 C851.07,573.54 851.54,573.06 851.80,570.36 C852.15,566.83 846.45,549.13 843.19,543.60 C840.38,538.83 836.91,537.52 831.58,539.21 C828.61,540.15 827.05,541.40 825.84,543.83 C823.58,548.36 823.45,548.43 820.84,546.60 C817.16,544.02 814.34,544.66 809.92,549.08 C806.14,552.86 805.71,553.04 804.09,551.58 C801.91,549.61 799.61,549.56 798.03,551.46 C797.06,552.64 797.65,555.55 801.04,566.21 C807.48,586.43 807.75,587.00 810.99,587.00 C812.51,587.00 814.32,586.32 815.01,585.49 ZM 877.62 559.38 C887.95,554.47 888.22,539.49 878.16,528.63 C872.84,522.88 865.74,521.56 858.92,525.04 C849.03,530.09 848.51,542.80 857.70,554.85 C862.20,560.75 870.66,562.68 877.62,559.38 ZM 927.93 520.54 C929.49,519.73 931.94,517.67 933.38,515.96 C935.54,513.39 936.00,511.84 936.00,507.09 C936.00,501.97 935.56,500.71 932.01,495.76 C927.79,489.86 920.08,484.98 915.05,485.02 C911.03,485.06 904.51,488.48 902.15,491.79 C899.07,496.11 899.20,503.97 902.45,509.51 C904.92,513.71 910.29,518.50 914.97,520.67 C918.54,522.32 924.60,522.26 927.93,520.54 ZM 1456.44 615.36 C1457.09,606.18 1457.31,519.47 1457.16,333.67 C1456.95,53.89 1456.94,52.47 1454.91,46.31 C1454.64,45.48 1454.34,44.66 1454.03,43.85 C1454.65,45.33 1455.23,46.86 1455.76,48.42 L 1458.50 56.50 L 1458.80 329.50 C1459.08,586.81 1459.02,607.56 1456.44,615.36 ZM 638.99 566.51 C639.72,565.63 639.96,563.96 639.56,562.39 C639.04,560.32 639.99,557.85 643.95,550.99 C648.15,543.72 649.00,541.41 649.00,537.32 C649.00,533.06 648.56,531.98 645.75,529.32 C641.28,525.08 638.84,524.00 633.79,524.00 C628.87,524.00 625.00,526.20 625.00,529.00 C625.00,531.76 626.80,532.50 633.50,532.50 L 639.50 532.50 L 639.82 535.88 C640.28,540.70 639.04,541.43 633.58,539.58 C631.02,538.71 626.88,538.00 624.37,538.00 C620.51,538.00 619.27,538.53 616.40,541.40 C613.56,544.24 613.00,545.53 613.00,549.23 C613.00,552.54 613.56,554.17 615.25,555.70 C618.65,558.80 621.50,560.00 625.43,560.00 C628.59,560.00 629.00,560.29 629.00,562.55 C629.00,564.47 629.80,565.45 632.25,566.51 C636.43,568.33 637.48,568.33 638.99,566.51 ZM 585.83 524.40 C587.43,523.29 588.02,522.01 587.81,520.15 C587.52,517.65 587.19,517.50 582.16,517.50 C577.76,517.50 576.49,517.09 574.91,515.14 C572.58,512.26 572.50,510.16 574.61,507.15 C576.21,504.86 576.22,504.86 578.36,506.81 C583.93,511.91 592.67,514.32 597.06,511.97 C602.34,509.14 603.64,499.11 599.38,494.04 C591.85,485.09 580.76,486.03 571.18,496.42 C566.11,501.92 565.00,504.55 565.00,511.06 C565.00,515.29 565.50,516.55 568.48,519.85 C573.58,525.49 581.36,527.54 585.83,524.40 ZM 730.95 591.75 C732.37,588.20 734.10,574.93 734.18,566.92 C734.24,559.95 734.10,559.48 731.11,556.80 C727.26,553.36 722.42,553.10 718.58,556.11 C717.10,557.28 715.78,558.06 715.65,557.86 C715.52,557.66 714.87,556.26 714.22,554.75 C713.54,553.15 712.26,552.00 711.18,552.00 C707.21,552.00 706.23,554.93 704.39,572.17 C702.51,589.88 702.79,592.00 707.05,592.00 C710.47,592.00 711.60,589.37 712.86,578.50 C714.19,567.06 715.75,563.35 719.64,562.38 C725.22,560.98 726.08,565.31 723.46,581.61 C721.73,592.36 722.21,594.00 727.14,594.00 C729.22,594.00 730.30,593.36 730.95,591.75 ZM 950.95 493.53 C952.52,492.72 955.42,490.16 957.40,487.85 C960.48,484.25 961.00,482.92 961.00,478.72 C961.00,474.46 960.55,473.35 957.60,470.40 C953.18,465.98 950.03,466.01 941.47,470.55 C937.78,472.51 933.81,473.97 932.64,473.80 C927.68,473.09 930.82,466.00 936.10,466.00 C939.64,466.00 942.36,462.53 940.92,459.85 C940.20,458.51 938.79,458.00 935.83,458.00 C932.34,458.00 931.10,458.63 927.44,462.30 C925.07,464.66 922.83,467.82 922.46,469.31 C921.34,473.78 922.81,478.66 926.11,481.44 C930.34,485.00 934.27,484.74 941.24,480.43 C948.22,476.12 952.33,476.02 952.81,480.15 C953.18,483.38 949.95,486.00 945.61,486.00 C942.49,486.00 939.00,488.43 939.00,490.60 C939.00,492.41 942.99,495.00 945.77,495.00 C947.05,495.00 949.38,494.34 950.95,493.53 ZM 606.80 545.80 C608.64,543.96 608.23,541.28 605.87,539.62 C602.54,537.29 604.32,533.16 613.18,522.67 L 615.85 519.50 L 618.97 521.33 C624.31,524.47 627.20,519.97 622.83,515.32 L 620.66 513.01 L 623.83 509.06 C627.25,504.81 627.68,503.08 625.80,501.20 C623.51,498.91 619.33,499.83 616.43,503.25 C614.31,505.77 612.91,506.50 610.22,506.50 C605.78,506.50 603.53,509.40 606.35,511.49 C608.47,513.07 608.43,513.15 601.92,521.50 C595.61,529.60 593.01,534.05 593.00,536.79 C592.99,543.20 602.92,549.68 606.80,545.80 ZM 910.16 536.35 C913.32,533.32 913.82,529.93 911.42,527.93 C910.17,526.90 909.47,526.87 908.17,527.81 C903.70,531.03 901.98,529.97 894.26,519.19 C889.75,512.89 889.74,512.87 891.87,511.38 C894.33,509.66 894.73,505.22 892.50,504.36 C890.93,503.76 889.62,504.18 886.82,506.20 C885.38,507.23 884.55,506.75 881.20,502.98 C877.53,498.84 877.11,498.63 874.64,499.76 C871.24,501.30 871.22,504.27 874.58,509.11 C877.08,512.73 877.11,512.91 875.42,515.48 C873.75,518.04 873.76,518.21 875.85,520.30 C877.69,522.13 878.33,522.28 880.00,521.23 C881.08,520.56 882.15,520.00 882.37,520.00 C882.58,520.00 884.55,522.36 886.75,525.25 C888.94,528.14 892.80,532.70 895.32,535.39 C899.59,539.94 900.15,540.24 903.61,539.68 C905.64,539.35 908.59,537.85 910.16,536.35 ZM 671.73 581.19 C672.40,580.76 674.49,575.48 676.36,569.46 C678.23,563.43 681.43,554.00 683.47,548.50 L 683.70 547.86 C688.50,534.92 689.35,532.61 688.57,531.26 C688.38,530.94 688.11,530.68 687.78,530.35 C686.56,529.13 685.54,528.99 683.35,529.71 C679.98,530.83 677.96,535.35 669.28,561.24 C663.81,577.54 663.71,578.02 665.49,579.99 C667.39,582.08 669.64,582.52 671.73,581.19 ZM 654.96 571.62 C655.45,570.31 658.39,563.71 661.48,556.95 C668.07,542.56 668.33,539.50 663.00,539.50 C659.55,539.50 659.43,539.64 654.39,550.00 C647.28,564.61 645.34,570.50 646.97,572.47 C649.03,574.94 653.89,574.43 654.96,571.62 ZM 691.65 583.99 C693.42,580.37 699.28,554.69 698.85,552.42 C698.41,550.11 692.87,549.21 691.31,551.20 C689.60,553.38 682.84,581.22 683.44,583.61 C684.44,587.59 689.77,587.83 691.65,583.99 ZM 789.73 406.24 C790.01,393.18 790.59,382.11 791.03,381.64 C792.44,380.11 795.05,385.61 796.67,393.56 C798.00,400.10 798.07,402.67 797.08,409.75 C795.96,417.76 792.37,428.04 790.23,429.36 C789.57,429.77 789.40,421.91 789.73,406.24 ZM 866.54 549.87 C860.56,542.75 858.51,535.63 861.57,532.57 C864.83,529.32 868.52,531.02 872.86,537.79 C874.58,540.46 876.25,544.02 876.59,545.70 C878.05,553.00 871.47,555.73 866.54,549.87 ZM 921.12 513.23 C919.80,513.01 916.56,510.65 913.91,508.00 C906.66,500.75 906.12,494.86 912.66,494.20 C918.37,493.62 928.89,504.26 927.84,509.55 C927.38,511.88 924.01,513.73 921.12,513.23 ZM 549.02 484.02 C546.72,481.72 547.16,479.73 550.90,475.68 C557.52,468.50 565.66,466.82 567.12,472.32 C567.75,474.71 567.30,475.77 564.18,479.22 C560.64,483.15 555.74,486.00 552.53,486.00 C551.69,486.00 550.11,485.11 549.02,484.02 ZM 753.52 583.03 C752.31,581.69 751.58,578.83 751.24,574.15 C750.80,568.02 750.99,567.01 752.94,565.06 C757.95,560.05 763.44,566.03 762.72,575.73 C762.12,583.86 757.56,587.48 753.52,583.03 ZM 672.07 533.96 C674.47,532.68 674.61,528.34 672.35,525.83 C669.05,522.19 663.00,524.54 663.00,529.45 C663.00,531.98 664.43,533.52 667.50,534.28 C668.60,534.55 669.64,534.82 669.82,534.88 C669.99,534.95 671.00,534.53 672.07,533.96 ZM 702.80 542.80 C705.82,539.78 702.70,534.00 698.04,534.00 C694.70,534.00 693.00,535.68 693.00,539.00 C693.00,542.44 694.72,544.00 698.50,544.00 C700.21,544.00 702.14,543.46 702.80,542.80 ZM 583.50 502.43 L 580.50 499.93 L 582.86 497.96 C585.49,495.78 590.96,495.36 592.80,497.20 C593.46,497.86 594.00,499.35 594.00,500.50 C594.00,505.44 588.36,506.48 583.50,502.43 ZM 623.15 552.25 C620.75,547.67 625.64,544.15 632.58,545.45 L 636.15 546.12 L 634.46 548.81 C633.53,550.29 632.06,552.06 631.19,552.75 C628.88,554.59 624.23,554.30 623.15,552.25 ZM 1345.66 587.56 L 1345.65 587.54 C1345.21,586.37 1344.98,585.79 1345.14,585.35 C1345.31,584.90 1345.87,584.60 1347.00,584.00 C1349.41,582.71 1349.77,584.56 1347.66,587.45 C1346.41,589.16 1346.28,589.17 1345.66,587.56 ZM 1357.72 571.39 C1356.96,570.63 1359.06,566.00 1360.16,566.00 C1361.50,566.00 1361.13,569.65 1359.66,570.87 C1358.92,571.48 1358.05,571.72 1357.72,571.39 ZM 39.50 671.00 C40.50,672.10 41.69,673.00 42.15,673.00 C42.62,673.00 42.10,672.10 41.00,671.00 C39.90,669.90 38.71,669.00 38.35,669.00 C37.98,669.00 38.50,669.90 39.50,671.00 ZM 27.00 655.06 C27.00,655.58 26.55,656.00 26.00,656.00 C25.45,656.00 25.00,655.30 25.00,654.44 C25.00,653.58 25.45,653.16 26.00,653.50 C26.55,653.84 27.00,654.54 27.00,655.06 ZM 36.11 599.88 C35.66,569.90 35.50,491.88 35.50,332.60 C35.50,489.42 35.67,569.26 36.11,599.88 ZM 1445.00 28.86 C1439.98,22.93 1433.68,17.99 1426.69,14.68 C1433.85,18.07 1440.00,22.85 1445.00,28.86 ZM 1454.88 619.31 C1455.13,618.50 1455.47,617.67 1455.80,617.02 Z" fill="rgb(190,201,186)"/>
<path d="M 0.00 354.50 L 0.00 0.00 L 739.50 0.00 L 1479.00 0.00 L 1479.00 354.50 L 1479.00 709.00 L 739.50 709.00 L 0.00 709.00 L 0.00 354.50 ZM 1405.50 688.00 C1412.45,687.22 1417.48,686.00 1422.00,684.00 C1425.57,682.42 1429.62,680.81 1430.99,680.42 C1436.32,678.91 1445.82,669.00 1441.94,669.00 C1441.36,669.00 1441.22,668.46 1441.63,667.79 C1442.04,667.12 1440.61,667.65 1438.44,668.95 C1436.27,670.25 1433.26,671.95 1431.75,672.73 C1430.24,673.51 1429.00,674.56 1429.00,675.07 C1429.00,675.58 1427.75,676.00 1426.22,676.00 C1424.69,676.00 1422.71,676.86 1421.81,677.91 C1420.42,679.54 1419.26,679.74 1414.12,679.28 C1409.50,678.86 1407.47,679.12 1405.57,680.36 C1403.19,681.92 1390.99,682.39 1356.00,682.26 C1353.53,682.25 1131.22,682.19 862.00,682.11 C475.04,682.01 214.31,681.85 162.50,681.69 C160.85,681.69 140.96,681.78 118.30,681.89 C84.47,682.07 76.60,681.85 74.30,680.69 C72.76,679.91 68.16,679.01 64.09,678.68 C60.01,678.36 56.39,677.63 56.04,677.06 C55.69,676.49 53.79,675.91 51.83,675.77 C49.46,675.59 48.42,675.08 48.74,674.25 C49.00,673.56 48.47,673.00 47.56,673.00 C45.70,673.00 35.71,665.80 32.30,662.00 C31.07,660.62 30.05,660.03 30.03,660.68 C30.01,661.33 30.65,662.51 31.45,663.31 C32.25,664.11 32.63,665.04 32.29,665.38 C31.95,665.72 32.22,666.00 32.89,666.00 C33.57,666.00 33.84,666.44 33.51,666.99 C32.39,668.79 42.37,677.74 49.61,681.42 C62.70,688.09 64.30,688.24 134.50,688.90 C253.97,690.04 1394.61,689.23 1405.50,688.00 ZM 1401.50 664.63 C1410.74,663.89 1421.15,661.59 1426.06,659.21 C1430.19,657.20 1435.33,653.17 1436.15,651.30 C1436.34,650.86 1438.40,649.26 1440.73,647.75 C1446.09,644.27 1448.39,640.81 1447.71,637.27 C1447.38,635.55 1447.85,633.61 1448.97,632.02 C1449.95,630.63 1451.75,627.03 1452.98,624.00 C1454.20,620.97 1455.57,617.60 1456.01,616.50 C1459.01,609.08 1459.10,600.23 1458.80,329.50 L 1458.50 56.50 L 1455.76 48.42 C1450.48,32.84 1440.45,21.20 1426.69,14.68 C1411.25,7.36 1474.13,7.95 741.50,8.24 L 81.50 8.50 L 74.93 11.13 C56.02,18.71 46.08,27.97 38.82,44.81 L 35.50 52.50 L 35.50 332.60 C35.50,545.59 35.78,613.27 36.68,615.10 C39.36,620.56 42.13,630.46 41.08,630.81 C37.22,632.09 43.65,643.79 50.75,648.42 C52.81,649.77 55.56,652.02 56.85,653.43 C58.15,654.85 59.64,656.00 60.17,656.00 C60.70,656.00 62.57,657.08 64.32,658.40 C70.86,663.34 76.48,664.25 104.50,664.90 C134.90,665.60 1392.62,665.34 1401.50,664.63 ZM 27.00 655.06 C27.00,654.54 26.55,653.84 26.00,653.50 C25.45,653.16 25.00,653.58 25.00,654.44 C25.00,655.30 25.45,656.00 26.00,656.00 C26.55,656.00 27.00,655.58 27.00,655.06 ZM 39.50 671.00 C38.50,669.90 37.98,669.00 38.35,669.00 C38.71,669.00 39.90,669.90 41.00,671.00 C42.10,672.10 42.62,673.00 42.15,673.00 C41.69,673.00 40.50,672.10 39.50,671.00 Z" fill="rgb(242,243,243)"/>
</g>
</svg>